<mxfile host="www.draw.io" modified="2019-10-24T00:45:12.160Z" agent="Mozilla/5.0 (Windows NT 10.0; Win64; x64) AppleWebKit/537.36 (KHTML, like Gecko) Chrome/77.0.3865.120 Safari/537.36" etag="Jcc82wdHwJxnuvS_lYZn" version="12.1.4" type="github" pages="1">
  <diagram id="SP63w3L9v3msSkd81RSD" name="Page-1">
    <mxGraphModel dx="2508" dy="748" grid="1" gridSize="10" guides="1" tooltips="1" connect="1" arrows="1" fold="1" page="1" pageScale="1" pageWidth="1100" pageHeight="850" math="0" shadow="0">
      <root>
        <mxCell id="0"/>
        <mxCell id="1" parent="0"/>
        <mxCell id="ItPlpzWooNjg1hFzr201-30" value="" style="rounded=0;whiteSpace=wrap;html=1;fillColor=#d5e8d4;strokeColor=#009900;" parent="1" vertex="1">
          <mxGeometry x="310" y="323" width="340" height="217" as="geometry"/>
        </mxCell>
        <mxCell id="ItPlpzWooNjg1hFzr201-18" value="" style="rounded=0;whiteSpace=wrap;html=1;dashed=1;dashPattern=1 1;fillColor=none;strokeColor=#007FFF;" parent="1" vertex="1">
          <mxGeometry x="280" y="189" width="880" height="611" as="geometry"/>
        </mxCell>
        <mxCell id="ItPlpzWooNjg1hFzr201-26" value="" style="rounded=0;whiteSpace=wrap;html=1;fillColor=none;strokeColor=#009900;" parent="1" vertex="1">
          <mxGeometry x="300" y="279" width="840" height="501" as="geometry"/>
        </mxCell>
        <mxCell id="ItPlpzWooNjg1hFzr201-72" value="&lt;font color=&quot;#ff8000&quot;&gt;Auto Scaling group&lt;/font&gt;" style="text;html=1;resizable=0;points=[];autosize=1;align=center;verticalAlign=top;spacingTop=-4;" parent="1" vertex="1">
          <mxGeometry x="660" y="661.5" width="120" height="20" as="geometry"/>
        </mxCell>
        <mxCell id="ItPlpzWooNjg1hFzr201-3" value="" style="shape=image;verticalLabelPosition=bottom;labelBackgroundColor=#ffffff;verticalAlign=top;aspect=fixed;imageAspect=0;image=data:image/png,iVBORw0KGgoAAAANSUhEUgAAADEAAAAyCAYAAAD1CDOyAAALLElEQVRoBb1Ze4xUVxn/ZruBLezMksg+2F2hwAK7wCrPgjyKPIRqDAWi1EQhtdaQVP6oEkgboxJtibbpf0g0MQahmphWWtumtRVKTQotuxLeLI/Clu4DdlgVZnYprGnG/H7fd+49d5idHdq1E3bumXO/853f73uee4ktfXpiJiYxsX8Si7lxTDDEB3M2VDn3O7hi2uS5XKV1vc5zBvKqHkpVp22C+xzafN61Hl4sKgLIjGTwhX+SybhxRjDk/Qwl7IfK8Jab5xKTt7Gu4zf1BPK2DybdnEpBLwEYjjxrDaxbX6SasIBsTMEgEjHFZhsijYy5L+GoZMFEQrxFysa8cSdEzGvOGr4etWjoYaKDv30v+GMjQh3qDCXrxjnXmnRGpAjh4wNQcxQQWk5HsD6qxyfCsSn+fxBhOH22RDT21XBZ3vmEHimi/eDawKJeaGnY5U9284jlWhAG+jua7OoRXVCoR9SB6mW3PnttkU5YImcTcSFj8R8BZnNq0TD+9fdAoVU4EQWuyYFVuYgUmwdFYhmJZWJablGrwcvmUJYdOFR3zAu6C+YzGRlekpCqRI1UltVIZaJGhg+N8w+6Uf97+9IcXU13SrKnU66mOuVqTyfnCAq9gwa0HoUxMegVm7Nv2Lz+hpdVvhgg0MxUWWFE4kMTMq6yQZZPXiXjKxpkXHk9vd57Ky09t1KCKz68xkQq41Fi7t7Jzmb5oPuc7D/7Mkl9UiKx+54aDz5GVS/spSAZdFXtyF8cfa8sn7Ja5k1YSiteTLbI8fZmOdHeTPCt3WetC+taqjXduodI6dCElA6Ny9Ta2TL2c5NkSf0D9Nqh1v3y9rmXpbl1P0HA8g6Xf6VHTBkulFtoJJyg4+MTgeXXLdgoK6aulgvJM7L74Ha5mDyjYcLN7MhBpe444RkhiwgkHBiM545bIrPvWSxL6lcKDLH1lUekt69HAUbWqm63Vk0rElv45PgMKDtWxt8U6I1frNkh8MIzrz8hB8/vowhJG2hd/+mIANjYkfWycfHPAVs2v/BgAR5RFGx2WnVc5lOHdVetWvMnLJOnX3tCDpzbGzlnQRI5peutnGZXLVfxVBiiUXku17Wt3WfkV3/7oYwdOUnK49UEZOp17OlgDvMLHTsCxEBBmPMiw0viHK+ZuZ7VxwF2xFVucIgMGxKXtbM2cD+QcBVxICLFMDnKGa6IOGa5VSxoS3+Ukp6bKZk2eo78ccNbcuD8Xtlz+A9yrK1JS7KFIqtcjvKLuGRFBiRXKIISKjKspFTGjWyQxppZsqThAamAB0QkmUIJ1tI+UNUqBlsK5SFy5XqHvPPPndJ7q0dWNK6WZ7+1mxuAEBK9K90hyesdzJWu653S24cyq4np+giil32krFaq4tVSnqhmT2msmc3qdLKjWV459hx1fG/+FkmmO4CMuRlgtOR1eN21mGEBa+bxyNEPD0ldRYP8ZM+j8pfmnVJakpD7v7BGxlfUM+FdoyMz76vnVlp6b6VYVtEA3Qf9oyvVQWv/9ehuaWrdLxe7zzASVk77jiA3EEKxmDY02tcZOweRYhwQ2KnzEEE4lVY2UDFiA79faN55Wx+pHFEjdeUNtB4BM9S0ggA4Oncy1cFr2IP0Pr5xEphSPYtNUs908ERIhDpZKDSGneH12DEAkfe7WuQbsx9yOvo9onRd65Cu6x1WrhVcf+WXIO1oAdYaMsLQuth9VitYcLxRIuYEq1QhER4AgU6ZayIx2VmdXNURhhDCSJl48rSMZqCvY/iQOLt76ZA4dVs1jJ6Wg7WsQ1SNI4oLJ4Y6VvO2XgNJQFN4Ys8Tik3p307kyKVDukFCK4fpDIkHYEJym766TTbdv012rH/ReDswWsYDHcHajAwbGpeKRLX03kyHxAnUrfWJKB0Q8Z4nDLzSp3udR9IfXScQeILNTQ0fgOOSAIwSwRkJH5xqf7ZyO70CT+XzSKWVVyR5xAv9ETFlWc8TjogLD8YUCV251i51FZM5DoiYb4Mw8og88/rjsuvAdtn60kYWgk0rtsmuR/bKt7/0qCDU8IEe3yPliRrOo6qpgBqEWPMQuatmUdlWdxjS4xXLM8sdFWn+yML65fKvnqQcvdREcdxDhdErL96aGEPiWHuTtP27VQ5e2Cd/P6VhtW7eRll77/eZwP/9uI+l1jXBmfcskJljFsiM0fPlbNcJuXaj2ynWnsHN9Eu3VnB3Vd9XttWf6I/IhMoGGTOyTvadelXBuuKThwhFuE9MYN3jbU3y3Lu/ZonFkX7VjPUyr26p9H3cJxevnpGvNa4laITTDxb/VFClOv7TOiAROztBziWNpjxcaM5mjKVvpqUOvcLCAINgrFHHzXKFVjBna188vEvW/26ZbH7+IbmQbJEfLX9KXnvslDTWzmaP+NN7O2Rvy0vy2LIn2dlNcb/J7p2dwg6JhqaPqmyTtDx6RRwlFnEM6+c4a4E4b+kyNYI7OzmdcI+tPd52SE60Ncmzb/xYVs9cLxsWPc5C8PvvvkncbJA3UzQWvQrDud4BNTZmswuB9U/k8rV29go8T/dCcV4i8BGImjfzEAEQhDC8s2r6Ovnt27+UG3wmFx5FbuDhiICDQFfj6BtkEil21huISOe1Nlpn1IhaOX/ldN6zFquJgSuUSFWill6A9Y+3N0WONEx8iwAYX+1Dt5CglxOg6+IceKM54o7kM0bPdSGqoQVJTSC63S+/fk5FyqltFORUBseNUuq9ksLpVXXiPkWDUmwaeYNisD06tt6g9QijfyIIqeElpSqgOgaNyPjyBlYwnL0cxgjxHESckeyFskdE2VCRI4YrJM5dOS0TKtHw1GVus9AQ4XxOj2Rb2NODo7oSsHAwIxVCJPBECIQ7UQVA+kTSOJLz6KGkDEPgV5XPQ8RYR4CZEry76kq108swktlScQRe8MNMDY/lEU8MRAQJPaFqsm5ErCFg2w068+dIP0TgCTxB0oOmu1AidnZSk1O/nyOmRYHp8zZ6RRBOg0gEbxLxqBs1QmEe0XBSgwZJ2p9HDre+S4NXldUOHhHVJFVlNXyLaNF1Rx7h/9kRdAFEkBP4zBw7lzE7KB7JCN/nQu+FrpbQOJGwzO8RzQloQBgNQASufvXI8/Lg3IdlYpU+c+clArURMJYvuh0B47kD77SOfdgkl/HGJCtEC8mRWOOWap4geDYBGRwR7PjNsZvTWxK/u0x+8/CfZWLVZJbcf7S8KUcuvSdHPjikJ3o7taKVUieUaZNlFy69OyE4EU8fPUemjZnDtyhI6B1vbeO7LCer61UJNPDYb7pNpeoF3sYto3BsC4FTi/cbQm7OiED4yw0rZFH9V+Tr079JZe4LDRF/eCOC1/w4pkB/aUlc8GIaJRp/uP9+skXeObdX3ji5h88fBO6RLogIiE3dPIqeiBIxC+hFvZODiJITmVQ1WUaN+LxMHIUrQKvpAVqBCEMFb0POd53mcfsyXt3cTEUerGgu7HmHRGJTQMJZ2PeIU1QAkdC9zoO+EWzsGUGH4XwAmlNuLU1kUUATBwbJDq2gY2tLiCY3Nisk2a2dMI1VXitEZGzKkOg6NBmX+MFebq2TpNq8VUvfO/kNDuKqRxkEynVA1b68P1Z4tt6BQcEJAeOmgxdWnturFpd4svmqFl/Z0JIRMLcTMRwkNjAR58HPhoi+PDPrOyuRVJZHFLjWfSfnrrmMoCHjeYF8cnsEepyR6J3A+84Iofeo14SBCfLWsXWzXGBMf+gBLDSE/jXX2kKJOD0FEaGwZxxxp1jsRnAaRhELZ3skUKLmcgBw/dREFASNlNcjAQb1VFCd1LwFeiRQMshEaAVa846I/A8CJAGldeBoSwAAAABJRU5ErkJggg==;" parent="1" vertex="1">
          <mxGeometry x="190" y="80" width="49" height="50" as="geometry"/>
        </mxCell>
        <mxCell id="ItPlpzWooNjg1hFzr201-6" value="" style="endArrow=classic;html=1;" parent="1" edge="1">
          <mxGeometry width="50" height="50" relative="1" as="geometry">
            <mxPoint x="489" y="103.5" as="sourcePoint"/>
            <mxPoint x="690" y="104" as="targetPoint"/>
          </mxGeometry>
        </mxCell>
        <mxCell id="ItPlpzWooNjg1hFzr201-8" value="" style="shape=image;verticalLabelPosition=bottom;labelBackgroundColor=#ffffff;verticalAlign=top;aspect=fixed;imageAspect=0;image=data:image/png,iVBORw0KGgoAAAANSUhEUgAAADEAAAAxCAYAAABznEEcAAALaklEQVRoBdVaaWxU1xX+ZrFn7Blje7yMN6ixTQkh7G7ZSYuxS6SmgQIiLAaViqZECo2KaKqqIWmq/ippU6ImARQSNSZtIGlZm8QLpTEOi0KDbUgTMHYC2Hif8TIzHi+86px735s3i41JpEY2Ysbv3XfP/b57zvnOuQ8MTxXVKjAYwH8MAOg3vqZfg+/zaNgYT5JzDDSdbanPqt9kSR0j+0H3xQUNsx2BQdqR64k56jz9mAFGtqYo4D8KXSlQ+Jp+Db7Po2FjPEnOUWg621KfVb/JkjpG9oPuiwsaZjsCg7Qj1xNz1Hn6MQVGNq4ZIQJ8MaaIGAn0WCdiDHLdGPWIUY21sewRY8RkGmMeMQoFiqAKY4iImZLaQMlN2q1wyYCikKYrQu9J4kieFaofUr1Iu0Puk3JbYg1Iz7UiPceChNQopE2MRp9HyCKZb2noxxdX/Lhx2c/qR9rP4czLGaAwEFErtPtUPXitCPgkbjNLKgH+CkSssSYsWJGI+Y8kwmozYsCvoKOxH+7WQf4bYzMh3mnG9KV2LHk0gXyMC8d7cOFED7rbhr4yEbNQJ7nz90jEajejYEMSZhcKYGePuhCfEoXZheMY6Hv72+FuG5TdgKi2MXYT8pePw6wiO779cBzqLvrw/n43uloHyZkwKPfuETO5TUTSvRHJnRGLjbuyGOypg+34T3kX/B5h69xxNx7amgKL3YhspxXfWedAn+cOPrvgRXVFL6YsioXVbsTtun44J0bjx887Uf6aGzWnPF+KiOHJ737EQav2JkRI9Dn8Gd7LAMiZYcemXeNxsbwLFSXt8HvvcN8T2mtNmWfHul+n4/NaH5O4b54N77/agc/OeeH3KkyaJhZtcbBXKt/qQuVb3WF92N16LTMx4LwdpUcWr0xGwcZUfFTmRsXBdvg9Q8JChGSfuSwODbU+vP6rRl5j+dYUPPhoIs4f62YPEjgKn9IDnehqG0ThlkQmRrlCE0YbWmY180dD5P758UzgYpkbJ165retyI6sWJXmfR01cA/p6ibCQ81BlOn9cECMilEdXz/tGTcQ0N3vrs5xysuWlRSikhAXhJbpBCbl253hc+bAbJ/be1tpt3mK64jlickaOFZPybRxGS9cnwWozIWuyhdXrUnk36j72Mhk1THjXYUDjVT8/u3htPD6pEiGojol11FZdhScW5bZDtMlaGygkj1vyQMu7aGUyEp3RKC9pIecN2zRaYo1Y/3Qmsh+IwSdne/DuvjZMnBbDBEi9zh5zC91n+6KGkLgIDODQ8nvuYNmPhOLpx/gprgnCmypis+peZiwllvjpVcuRHoXFP0xB5d/b4O0Z5MSLVBCtNjNW70jnEDq5r5XBVh3txIdHXZp3f/5qNk7/1YVLFd2yiIYUN8WAYy92oPi3ToxLMY2qjsgGUMeMd4W9rXmkqDgdvt4hJkF7RwQjdb/ff8yJnGmxKHnuJny9g3zI4ZyTXqU5/z3nwfKtySFjwR75oraPi+SStfFyLT0+EQUCg7jPhyL9DeFW1VHgCvzAwnh8QF7oHaRZEU9glDPpOVYc/kMjOpsHJElpR4YLcf/Xm+1sc2ZB3IhEKv/WhW/OjeHdDMcXTMRIlmip8AcFgLyZcZzUTXXeQC5IIgS6sDgVa3Zk4f4FcdjzeB2uVHVLexyobJf3WRLx9d7Bx+XdXAxpTf2YHsOn5z1MdjRExPF0BCKUzBRKt+o8QSHkcEbhp7tzkV+UyCSJyMKVSWocjkjkn/taGeCsZePCSKpEaM3mhn44s6PYFm9JaFJL3Nx2iKSO3LNMuM+GHtcAyCMOZzQcaRYOrTlFiUzuj9uusv4XbUrDso2pOPOPdiG/tMusEOHdr88zxN6gCk5eYeBBxVIkO+UGtSUcLbKrpmdDawy/7aABdmwEj1DBSh1vxbpfZGPJKicycilOFVBnSmB8PSKBm6772CNUEyZOj72rR27X92HiNHpOn9R0KbAQJiqU8anmIGyRPMISqw1EKPUJydGoOtaKE/sb4fPIHgnA9epeLFmVih9sy0B9jQcPb8vA5aouVqXHfp+Dput9qDrSgYulrogecbUMcEhRXaHei8pqqEcEPaFA+mihrk7vEU1iVSKhHiFFMkcbg5SJnq0548KRl24xkbU7J8DV3I9jLzex8Re2XQN5Zs2OTGx/KQ9zChPCcqS+RlTttBwLC0Ykj3DbomtV9NhUvPTNJzvyqNoCiN0INF+3rnmRlE4L0UN84ONTIIX7v99uwQfvtCLGbmbXq91vY50Xh3bfRNkbrVK9Mll+T+xt1k6IVEfIG3QKbKj1avf1HrHaRFuh3/VIHgmTWJWhypoWmzRTHHLImLjPn9jyXC4oobmwyXzS1xFXix+Hdt/C3p31WLQyCdv/nMvnCCEyCioOtoVILK9OH7xp2dNi0Fzvl17U5w4vJrAA8g1gSEKrRgjqrTovJyxJrf4+gc3Mi2UvsJfIZAQiFCbXqz340+PXeH7xrvG8uMVmgrtlABdL3RGJUCjROb3hsi8o2YMxkHUFw0qs+nB1ZQfv9PTFiTh9uDlI3hxp0air7mFwwuW0noi50DN7Y10fE3E4LVi0wsEtPVV5+qkoacOpNzuCXj5Q00inwdvsCQpjVbLDe60RJTZAxIW536N+J1DZVc+oEqs+y3szjEfIUz7PoHYm+c3qT1Fe0oaCjSlIYCkNSOy8RxI4V8hbIowDY8LzIuQIk6ZO4sFArKkPEriTB24ga5IN0xc5NCKUBwycgoFzhS+FADBZ4Wp1TNhTOMHJAxUlrVxjyktauVhSbREYwK071ZCzR9yEXKyjriHzUsVH38M0gAKA+mBHsx/n3m3Fqie+wTaJPbXk1Bpk5sYyMRUsE+PMjZwjJL30s2CFg7+nzo+D1W5iW2Sc6sbS9cloqPGivtbDeXY3IvINYCBMxG6Ee+Twns+RlGYJIkLkaFcDc4ie+BEbEE6EyJe90YLCYieeeWcKip+ZwAWRTozEfeGKRKTnWqCeR0QIk83hPSIq9ghJo76Vo/B5YfsVPLlnKq5d6kZNpYsTnjzBSxCCkDpCRCK9Dir9SzMfc6mFcbX0w90iWvzZRQlYuMLBiU4eo9oVSGjRg+nriDpmmpW1WZyxCYmoLVrhY1Dig4F28s6bsXp7Nne1g/0K5hQkoexgU8gccdaW5rRTnWbKYMDk/DgukK03+/Gzl/MQbTWhYEMK6CUEvQbSn9nZjvzQzv+MV7xWkmdsxnhXPaadffvFBpw8cBM/+d1kmKPpBYIZJLUifAKKMVKOxNiMKNzk5CSnMImKNuLBNclMgN6i6EOI7HIgaQlNWINDS/4jSyCWxeIj58jJ125yaBVtyMTggIJVT2RrqsVLyAWHI5IzwwZbnAlJGRY89fpkmKIMuPBeJ46/0iR2MwTw3YiYZmZsejbMdWRqFKFVfaYTadkxmDo3AVl5sYiyGEG9ltqH6cNHDa3YOBOKn85BXKIZmbkx6PPewb5f1uP8yU6xKOWVtrgAEoYvJLQMm79VRi/ttbjlZBL7QaWRDaqgxBivEnSfasjSNRmY91AKz+Sk9wyBcoh+Yu1mtpU3w86HKgqfoSEFh56/gerTbrmOqMRMIYiIioEsEU5JUcMGGDbnl7KEfFUivITBgBmLk9grJMeOdAvLMtWTzuZ+dLb043KVG9TlUksRBFiCExsmNlXC1W3mMEQ25ZfyKTKw6yEPCnRBOz+cR1QivLjcTQFK7LK4r0GTYacD/CWJBNRpuGQiZNqYXhXCC6J4lLWFBUSoTOicgIgIRQsviGH3gzDwhdaiELZgddLAhjwYZCQUFOENqJl49P9LhP8xnmEwAf2ujx0ishUPATzGPKL93w5uPGVYcMCMISJaFyvDnkv6cBVSuy8f1ueCGPt6kl2+xpSJKFJizBH5H1/8lqlQOGe1AAAAAElFTkSuQmCC;" parent="1" vertex="1">
          <mxGeometry x="440" y="80" width="49" height="49" as="geometry"/>
        </mxCell>
        <mxCell id="ItPlpzWooNjg1hFzr201-10" value="" style="shape=image;verticalLabelPosition=bottom;labelBackgroundColor=#ffffff;verticalAlign=top;aspect=fixed;imageAspect=0;image=data:image/png,iVBORw0KGgoAAAANSUhEUgAAADEAAAAxCAYAAABznEEcAAAMkElEQVRoBdVaCXCU5Rl+/mTJ5r6TTYAgSdAiRwCFQCRgI6eKVRHFVhClVqbqWDu2Q20HpZ2OM45TW0endWrrWEe0VhCpOnIZKEhAIpiQAFVyQIHc12Z3c5CE7Tzv+/+bvRDaOtPJhuzu/x3v9z7v+fx/MNYvrvLCMCA/BgB+k2t+DRyX2ZA52WTuMbhdZFlrrU9KsuYoP2BcLzgtclQHU455nu6x9vnPGYgQaV4v5MfLKy+8cs2vgeMyGzInm8w9Xm4XWdZa65OSrDnKDxjXC06LHNXBlGOep3usff5zXkSIcJ8QApCLEQUkgkqPdCARAa4boR6JsGJtJHskImwyjTCPRGgFClMVRhAQrU5BZexyoTW+IBbXzokPKMuK2SwRZml25I7CPU854Bg/SouHXxEJLrPjJtmRMznKLLFq1MCCE8bQpt42KamGFwYPYBPySu+D18vm5NXGxcXsM14Do/PtWLVhDKLjIlG6qQ2lb7XLuEEBMFQJw0B2bhRW/jwLyZk2jJ8ajT8+cR7O1iEYXgNeUy6BxMRHonhlIgqXJaDPcxFvP9OGltOD0vQEqNU8RYcw+nmByKLchzfycPOfdGlaVZuqNa6dMiYhEqufzpHDDn/UiQWrMnBtUTxsUQZcnUOEgJyJMZi+IAG3PZqJtnMX8PovGjD2W9FY8lCaGIjnOFuG4MiLwuR5cZi3MhH5M2Kw900nkjJtmFoSh/KP3FTB7N5iGx8LMBUL1O+Jks+9Vkun4koP5D2EAqx+ZhzyCuLw6vozaKrrQ3ZeDFY8mY3svGg51HqjRb/Y3Y29b3eg33NRLLL0oXTM+U6StcT3eaa6D7te60LL6QFEx0XgkVey5ftbz7SJLldEUQiCEi8HZNHqTBTfmY7NvzmP4wdd5gGyU/ZOKkpAimMUTlf1oqtlAH0eEYsURxScLQMChKbJnRqDJIdNvNFSP4C+nos+K1OHq6bYcd+vMlH+oRufvO68IiA2jWRNGk0JuiMwR+bflY5Fqx344JVGHC/rFsXu/skYNNb2o2xbOzqbB3FCgGkcUtm8gljc/IMMZOXZ0VTXj0N/d6Ki1IX6ql4Y1RaRM5CSOQqFtyUgKXMU9r/jxJnqfmx+rg0r1qfj7PF+fFXex34shrpkjvzo2+Umi1UPB3skNcuOH79yDT7f2SkgCHTd83mS2ExKWr+zeQCNdX3oc19Edr5dQFJafVUPKna7MHFOHGYsTJQD/nnIIzmV7Bgl4cPEd7YMyhzD6eV1DaLwssdSUXBTHP7wwyYtCPSJJqp8asCr0WwsY1ZlkgIUVJ1oBiobE0/CS4JoiOJHdnZh95styJsWL3nCvdn50ag/1oMvWrpx8pAbXc2sMpDvH7/aCoYclSYAesfZOogzVX1oPj2AG+9NRuFtCpQW5xxzKzEjUkKPFe1SHrH5XGSW2GAg7U39eOf5f2HlT8eJN+qOeeST+UEQdZVucIyWUUMF3o+wLLP8UqGju52mFYfDzrJuwU3xOPxBt/ST8VNiMGtZAso/dIGJzzVWaQ4HRO4nCEQai9k86FsBJ5YHDu9oR/UBJ9ZsHC/jn25tE+9cvzhZwiD4vkPliRCRK71I7hZUrqS8eSbXTpwTKx6qLHWLtRetTZbc2PdXp8gf1k9iIaQhmgTQEk53+PpkAJDyne2iOKtNj2sQtZVuJGeanVhRByj8nwBJyrChqf6C5FZSZiQcuVE4tkd7BeWoeMvQoUCEdoQuDAVSU6FCJ89NFJs21PZidH4MMasX/wcgV02JRlfzgChLqsJXc90Fn9xQ/QKB2KhR2KQJypFe9yDO1/RKSaTmve4hSXAR5zVQvDwN1y9KEQX4xtz6ZFMrThx0Izs/BvdtGCNzHLdeW3/XjNPVfRJK/KSy7NrilZYByTN/isLcEEDSBZS+UH+zOg0PBC5UPmUlO6vU+dpesRDDikAolAnN0OpsvoADW9tVR8MwresFvbblt40CjPBuuD0F2Xl2dLYMyn4mPasW/c+KJt/pYj9lWTj0rFAgftXp64GMnRCL1Kwo9InikO8dTXS5JjAB8rr2mFssKEh8T0u8qKv0SJWZe0cqcgti8drPzqKr+YL4rLGuX/uI1yu9hf0iKzdKPHIlQIKqU2CsEblkh9eLJfdni5KnKrqlZzAfqsu6fIWAB/NFduvLKF8FEqSiaNHtKdjyQiMa6hg+Ok6qwv3s2jQSe8j8e7XyDeswnHsck52mfD3ZLKmqcCiQ/OnxmFqcjO1vNEgIzVueIZ9MdgskPTFveTp++d4kPLdjKlY8qTmg1U6foixb55A8Yve+biELhI6fPOSS0Ju+gPcoEOLILm8l+eWARM7MWbvRajgCz8dk5UpCYPlj4+DqGMTWl88iJsGGNRvyUPZBK74s79YUNiCcas87rfj4z41CQUpWZiIjxy6cypL71REPTh3RKnfrOgcYRq3nNKT6ey6i5HvpqNrnwrkv+3HtnDhk5dpRvd8tOlgyhG5YOkrPNPS5k+UeLgxGPSY/BgXFKdi7uUksd+PyTPHCvi0tslarE9DjHkSva1AsycZIrpU/LU49pYIlwY+XuaRqkW8JnzJD4uiubgmlku+mitytL7YI52LfsPQL1s3SN4Knqls1zqwJK7QmzEgUpY992ilxe+MKB/6xpRk97iEuDQBihRYljc6PRkOtxr2M62I5yx6nXIxA5FQTCO8SCYzcqrG2Tyg9w8pfv3BAwpZYn3IGMCY/FudqPKLs1dMTpWt/tr1VE9p8TsokX7ImW1gs+8mE6by3iMJfNp4mTEwqSsLMxSnSkZm4k25I5DCO7upSIwg38gq3uuXhTAmlg9u6hOKTRx3a1mXeHgdRcvNW95Il1gKSlmXHuVMesQZLbEdTv9AOJWXaR87X9KB8R7sAHj0hFjUVLpBfdTSzYTFflAPROwR8oqwbB7Z1CGj2GCk2JhBSenss641XqhRvougtg96ShhUKxGYp61+PuctK9rOnPEjLtovl2pr6wfsL/hKM7lEgVZ92gb+6TxmtNChTSwLhDRUvJTl5sMwpyyWQlKwo5E6NxcmDbgGW7LBJ8ktOmCDDAQlDAKkvS5/mCEPpmhlaDk8d7ZbQeujXV2PMhFhZ458HPoPIfpWjJTZM7uhi8yzInSCpSZ9nCEd3OWGP4xMTO05X93CleZZ8CdCPel6CAA4DqdzfgZh4G0ruzkKPewAvPn4SjPv1f5oCgilckoZo3jBJcsp5pgG0B/iDVMMMj7O3TC5KwKqnc7Bqw1gpIC89Wo9ezxCuW5iE6PhIuQWWMPgaIMb3Z5f6/ZFF6ZnEu8SKun76/DSse3YiNr9Ujz3vNkk4FMxPRcmKLDDZ+WIeMDeqypyorXDJWHBoscewZOdPi8fkG5KkgpF/MQ94j35klxP9niHMvSMNC1alo3RTO8q2dcp5jDyJX7M36CUD04CCkHlzQFdLbEvsmjF89+N5uOmebJT+rRF7NzcKBVGcBqbNS5XwYj9hmJFD7XijAYe3t4scenL+XRmYtThNOBcJYW2lBycOdvvuzakCQS68LxNz70yVkPKRRqmCmmdhgaydXSq5YprORB3eI0W3OHDr2hywYu15txHsHeRSAt8En5YdjdlL0rH0gdEikkBIWfja914Ljh/oFt7EE+gpAmTVomeuX6TrNr/QgJMH6U0qLqaUIqDnUJK/foDxYOEn8vBMh0VygFLBocVreqSgOBXXzNCHYcf2d6Cm0oXPtrdJXFt72BiXrhktzfHznR3oaBqQghQbb8PMJWmYtTjF92SEIUWme+D9dvR69FmUFUKXBfJg4W4h7r6FAlQwixX0Uq+t8OFa61V0SyamFaeiYF6qDNEzh7e3yX252NCyJCD5c/sjYyWkuJhhRXrCsOp1Xwwpv/6W9+kXLrQemLVbniMHuI4n+Bb7u04SJMBTulRBMtmnzU3B7JszJMk3PVePhppekLrc+chYyRd6rHxHhzRAPqfSczS0VAd5F4MM6yCnXDK0jDWzdvGhiljhmwBCb+VMiMOqp/JV6QqX0BBWr/d/f07AqSf1TH9vhYwHGPPSQIw1M3f6ldighQFCrtwjVtjNuTkDhUvTUX2gSyqVxjqFhrG8GXb/FZD7Z+7U6uQLHzli2HV6YkAIaXx+fWhZQFQpVdrf6t8kEKEd/nRY2YbSDiUe4Vu9duLhzk6l+GJXDjc3PC6zvrUiwXrsY3b94M5uLvZRFN1jyiHtCB4QFRTVMF9R7UI4Szhl/x9A5I/xIx2I+bRD7DdseTMkRkpo+f5vR4jCIwiI+XdsTeGRCsTv79gjF8i/ATO2m3HfNHleAAAAAElFTkSuQmCC;" parent="1" vertex="1">
          <mxGeometry x="956" y="80" width="49" height="49" as="geometry"/>
        </mxCell>
        <mxCell id="ItPlpzWooNjg1hFzr201-11" value="" style="shape=image;verticalLabelPosition=bottom;labelBackgroundColor=#ffffff;verticalAlign=top;aspect=fixed;imageAspect=0;image=data:image/png,iVBORw0KGgoAAAANSUhEUgAAADEAAAAwCAYAAAC4wJK5AAAHcUlEQVRoBdVafVBUVRQ/psMqpqOwKKIZSmbKKNAw4iflR6mVaLnauGS66ijWpFZj2Jg6OjpqTqZWgzlJVEKObh9KZZZJQpKAxiIJ7vChmKKl0CSILv9s87vrfSy77753H7J/eGaYd9+95/7uPe/ee87v3KWD2+12030unYzMP+vgIcrLL6JyZwXdbGikIYMH0aTxY8hqmU4mU5ARqFa63/34C5WUllOZs5LVRw3oT489GkXWWdNb6YleOsisRNWFS5S6bjM5zpap4mDQrevfptjhQ1XbRZXXb9RT6rotlHuyQFUFeMAFvpboGuFyNdPk5+fS5dprNGTwI/RC0hSKGxZNZnMIVV+ooV0fZzDjsBKH9+/VHZBPBriWl5dSubOS4T47eQKNjI/zww0zh9DRb76g7t0e5F39n1gJLVmz8T13VEyi+7nZC9z/3WxQVeU6M+emqLarVW589wNp3OWp69UglDpSSiqFO3dc7qEjJrHB/rlep6LhqYLeE1NnM72y8xVCPe+GuLHPGMLVGv8B/7Vpqam+eImw7AnxcYRlFQm20lPjx7HmMmeFSE2pxxaCYzCC6yg9p/T3LWgaUXWhhulrGcABIyJ6s+KV2mu8SvhsCy7OpEg0jegX0Yf1u1x7VdRfqS88XcLKOPx60hbcqEixh9I0AhPCKsC1YguIBFuj4HQxa0bs0JO24MYOjxbCahqBvT7PamGdV6xaT4gXvgIDkhctZ3scwalfRLivit87cGcmTWX1Mri25FmaLlY3TmCkGdbF9GeZkzp17EgDIvvTqBFxZA7pSTl5p6jsfAW5mpspNKQH5R45KB254TCmWxdRZVWNH+6xX0+Ss6Ka4fbuFUrHs/dr4moa8dXhI7Tn0yzVFfD7vERsFRbbrLp0ARF62649mlvUGx9beo4liZbYklWNEXKntZu2E7gSBFsEkwvv3Yvy8guo6MxZamxqYvxmQuJoCu7Smb60Z7NzcaOuXhkfZyk3v4C5UlSaQ0NYRDeZTEqknp9soZ49etDx3JPkKCmj2y4XDYqKJI6bkWVnZ3LX7gxylJZT2vaNfob4rQSWGXwGpAyhfuuGVUoMUGYnKODMNDc3U0amnU0e3MhXEE+WpcynoKAgaYpScNpBqWs3K9Qn85Odrc6InxF8BbCE6R9tY7zGdyKi959z8mjFqg0sQEIHXqh7t25MvfpiDXkbBSewYfUbIii/evRd8OpKtoIghvbP01p0vKkAKAN40siJM9x/Xbnq3aRbTtu7j/VFf3Cdyuoavz6gDm+t2azogT8ZEXC3p2e8xPpnHzmmdG3FnVJWrGYK6fsOKAoyBW48DPAGF/U98dsphZMZHeun47lsjvjQ4GwQxYhTRcV+jaJJ+NbbXlnJ+u5MS/dtEr5j8jAaBJNPRqjs08DHyzzwLWtRgh0nbghuCEayAneJPziBZSk22W6EAIa9DUeCs2RE5limMfXCMx6qoxhx3lnFGvSyKN/BeErJWaxvu9Z74ugRrBnBzYgMjHyYqXMiqRjBV0KG+3gP2Nh4i73GDBviXS1VBhWHIGc3IvjQ2C08VVCCHSogoNIydBq6CfGxrdymkYlAF8HP8wxlTwRHUBgZwfaF271eV0+KEbwjyJysVDpOKMmSd6SW7X/lLsXn+QrIoFbeoIZrCgpqMWLHlrXSXMYbbNKTY2l3eibl5hcaOtjAwPUPhDPfeckWamho9IbXLPeNCPd8RB/v1aZXnl/Dh8sKAhfybLhYrfxZBk852Jom6zSCHEI2bftQajvArS59/R2WgyyxWZUtqTOMuFnGUhkdUA0Er9gxU915+UXCLqAj015cyHRxDWQ00KkB+x1ssbniFnzZx2Oi6ffCP6iu/l+av/RNCgsLpaQpE6lPuOcC4VZTE32dfZRqLl1mQF2Dg2n8uFFsNcJM4psU8agtLX4stqVJv4TJZ9kPscSJM9TOnU3kcrlI65q6a3AXutV0mw0Af4+7XGxJ7qX0R26t0WYjkFtjX/MLAngYeBfkznB7W3eksRSz3IsJ9OsbTq8tsdHAyIdYvsITHkwJ/dPe32SI+iumqO0xvTp4E+xnnAFQYxnmKsIsLjnn5oQO3grvRkVhsbIdcTC5S7UuXC68n5XF43r8bhYu14irRn9DRsAAfoeKr9cenoUbgSeoPFYXf0ZW15ARuPXGAMjOAiX2Qz+wMfCxZIOgtBE8ifHOqAJlCM8w8ZQRqYgNV4r7JwhcoZGkSfEgBgq4DYEgWdK6PuWQUkYgFiAO4PYCGVmgxXsc3DfpiZQRx3I8mRf/Qnqg7dHOVxyXb9gJWqJrBADwAwe2UOLoBC2sdm1D9I4dFs0McJSq/+DJB9Q1AnsShgAw0GeBT4o/E+JjWLH4rPhXIijoGsF/YDF6gcAnci/PgXd/WKm9+rcmjK4RyGEh5tCemkCBaAwze3JvTi5FY+gawdNFntSLgAJZD7KpJdL5xGdZdvr+aI4WVru33WxokMLUNYLvS1zbq/3cJTXKPSoN1fkxUyqfwOTbciVzj3Nn3ZGb6P3PiJQR7TGZQGL8D+4h5fEuNMEWAAAAAElFTkSuQmCC;" parent="1" vertex="1">
          <mxGeometry x="695.5" y="81" width="49" height="48" as="geometry"/>
        </mxCell>
        <mxCell id="ItPlpzWooNjg1hFzr201-14" value="" style="shape=image;verticalLabelPosition=bottom;labelBackgroundColor=#ffffff;verticalAlign=top;aspect=fixed;imageAspect=0;image=data:image/png,iVBORw0KGgoAAAANSUhEUgAAADEAAAAxCAYAAABznEEcAAAHGElEQVRoBdWaW2wUZRTHD/eLpZQWaCulCmmR0gBFGgoJNaEQDJJYHsCEAA/wYIm3F+HB+iDGUB/ExHhJ6INtIhCN5aGYgEgEEkqkEogUQ7k1IG2xF9lFCqaUojW/s/tNZ2Zn2t2y6HIeduab+S7nf27f+c7ssL6+vj55wmlkvPgPtPdIw4mAdN/7W4IdPRJo63FMPS5phGTlPKXP5henSlZu6N7RaYiNYY+iifYb3XL26C1pOBmU1qt/xcRCWuYYmV+cJvOWTpJZCybGNNbdeUggYLi2slkaf75tzZecOlryF6dIavoYmZGfJCNHD5e0zLEyPmmEtIQBXr9wV+7efigNdQGHptDKmrJsmVM0yZovlpuYQHQFH8iBymY5dahT14DxwhWThyRNo8X6w50WIDRSWpYtM/InxIJBogZx5ugt2VPRJL0P/pFxSSOlZF2mrNw4TUaNHh7Tgl6d62rb5WB1qyAk6MWNWQrGq6/Xs6hAHKxqkYPVLTq+eE2GrN6cJWghnoRwjuy9KUf23VRB4fxbdsyKSkgDgui+91C+qmiShrqgTrapPEcKl0+OJ+8Rc+E3leWXVSv4SlnFbEnLGBPRz/5gQBCfb7uozovU39iVF9ewaGfCfU+4riy/pBEv45lxsn33XDVhdz/T9jXo/Z/9pgAIhdsr5/5nAGAMycM4Dk4A+HLHVcOv59UTBI527Nvf1YTKdg6uTs+ZRVSSV365YzmsXz+v5wSMsornBCESyhGqH0WYE3vAR1t/VefCsaLxAXznXF1Qms51CTaN9LwIxpBubkGyRLtr2/nBPxjnpggQ2CKOTBRa//ZMd39HG9slmtQf6lTQ9pdIMC1jrPUIjbgJe1+2NlP3GsK2H536vlPDO46OmbnDugMEqCu2NKgTvbevwDeMEg4PVbfKD3tbrXXZbecsmqgphF9ehMbQVOPpO7ph0oYIHOu3zfSUslkAvuBv7ZvPSskrT5vHenWA+OStC4LEvDqaUTCx58MmNRkkwoRLS9MdYRCQ9ENTwbYeTUOQtH0nBsCJ2nY5XtNu+Qymgsl4EdaBlQD4g5rnHdqwdMiiAKATpuRHJobD0KZ3cgSTgPCD4/vbPE3LPhdaKn45XU2InRkhkA18s+uamjHAvfYFAKJtnBzztfNogTh/MpTMFZemO1DaGeDepAbYJgQDx2vaVPKmL8AQBg4Mdd3ulY4b3RJov68m8fXH1zTawBgb6JJVU+VQdYuVQ5l53NfFq6YoiLPHAt4gzhz9Q8d4eb97MtNG+lU7rmgTR16qEp7iKUkzBknCxJkfb6kA8opSFIR5P9AV3jBhrAZzNMFANQEzHGJgxM8pvSY3WmFyP1t2j9MAEE65TTbs7uPXBsCcohQ1O0I6GoR0syO/hwqXT9FrrD/jJ1hWGevQmPvPC+8T5+uC1lgFEewIpcBTs/vjutUjwW6mh4+4XcFeizMF0RUIgfCKClbPBLlJThulnBhTphECEUZFREl0Mjx2BdyaCJ+oJoZRJjoQAhAbqtnxVRO9PaHSE4f7J4kAAinX/XbWr6JEBmNMyZhWCETYFwJt9xOZd+UNE0IDmJQhBWF8wR62TIdEu94JO7TZreFPQVDwgp4ETXQ0hw5cxpQsELkLQomaSQIVUYL+NJ7+UznLLegvsKkmSKtRjzkDJCj/ypYpnRau6E+RFASJVcELobNrY31/fTXRwHCyI1El1bdnFwoCZvMWpSjPdd91JBrvFj/1h0PHhYUlzgKeBYJ0GmcBLUfBRCNOfJSSsJriNekO9iwQvCzdmq0vD1TeiKheOEb9D439n15XnjiW2iMTrFggaHDI4FDEIQnUiUIEHKyD4LNyg7PSEQGCB6s3T1fe+Q6BafnRa8U/CdWRRyU+FzCX+/OYmZcduur90BHYrxrv0AQD8Q1UxtZe+e4lK1M0ky55KXQkNG2uOeGCgP3ZYPcLS9IiChJYQXJq6LzAeOWh/LIC5AOMvcJhn99RdzIvGPzFtotawmHw67vyIhY0fR/nlaoIZk2eVF413yoMuNeM0AQdcHJTzKUWBSCTu7sneBxthGgAKC87Z/sCYH1PTRjG8Am+UXAUZIN5dedsq1hm+sT7irAo0CE8I8zBPkgOCAIGAcCkRAiiAzXTaCrlQwHHGjgxTk4YjfbDzqAgYAb1EkWo9kHkWtRr7bXVoTBtxrCRsQ+YTRYHB4B7PzD93deoQJhBlNgP7G62SplohGLyUD+mY66kEjgvgsJ8Vm6YFvNX2ZhAAIbF+Mp5rKbNcnbMLL8oRShJkpihIRhyE+bCwYt0mmzUvjcQPv32Afc87nbMIMwE+EpdbceAf4kgNALQb9MkWOC0y9ZlOrJSs0a01yGDsC+ATfPnFD6eEF2QuBcZs+P/HDAPiHhQXED4MQK47rsPYypS+8010PPHCmKgheP57l9zEG5KPom6JwAAAABJRU5ErkJggg==;" parent="1" vertex="1">
          <mxGeometry x="695.5" y="206" width="49" height="49" as="geometry"/>
        </mxCell>
        <mxCell id="ItPlpzWooNjg1hFzr201-15" value="" style="shape=image;verticalLabelPosition=bottom;labelBackgroundColor=#ffffff;verticalAlign=top;aspect=fixed;imageAspect=0;image=data:image/png,iVBORw0KGgoAAAANSUhEUgAAADEAAAAxCAYAAABznEEcAAAJiUlEQVRoBdVae3CUVxX/bbIk2bzIxphNApaQh/0DmtBKm06hpQrFx4QxSGdaSmuLGQUfnWFkKozVmeLUsQ7q2HFsQUXGtuL0NYVSO5bQ4EwxlFqqEKS+kmAhb5INm02yea7zO/feb7/9djfZ4ExskmF3v3u/e77f755zfufcDa5d65vDcLkgvy4A/CTX/Bg9LrMxc7JIr3Fxudgy95p3WjJztB81ri44LXYUBm1HP0+tMevscy6kiLVwGPIb5lUYYbnmx+hxmY2Zk0V6TZjLxZa517zTkpmj/ahxdcFpsaMwaDv6eWqNWWefCyNFjFtGSEAu5hWRFIKe70RSolw3Tz2SYmJtPnskJW4yzTOPpCgFiqMK84iIm0ntYnJTu8NSMhAOU9PDSu8pcZTnMOuHVi9qt2Ocyi2hGTWndF+N06QLYW2XY9T+9EwXbq7NwZLl6QgNhRHomUTjbwLalq4H8qw4+DTuiDo59HgucoQENu0qwM212ehuG8fVngks/6QH235eyDjQMq9qQ8KICYdZ7NTuqmKkxHaukv32exYirzAVB3Z2o+HXfhw/OIB9X+0WAp/92sKkicSq0xx65OM1Hrzz2iAGusctwCNDkzj5QgCVt2SokErCI9J2xOz8HBBJz3Ihr9AtrYYJHfM+0DOBjKwUKcIK2/ShJRJrFs9laI0EJ3G2MYgly9KtjsEAvm5ZmuRIsr2WJbH/DyKh4BSur8nE+i95Qc9w99dtzRO1+vPvBxU53RYZgnxXmStxJp6MklhRUqfMJpDf8qpslFVloaw6i/zlJzQ0JfF96ogf/p4JS5ad8puenYI7N+ejem02Tr8akPdbNuRaNpjkzSeGlVFReyXNRExZFkKm5Sfeh9ecDnNC9fvyKotN/87yYZ9bVJGJDdtLUF6dBX/3GDpaQuhsDYEESsoyUFyegeKyDLx/ahCNh/rQ1TrGY4mcU/jqyU7Fxh0+lN7gwZEne/GP0wosr/mc7otjGB1SsqowKOAKg8LiHBcS8ogkiJRUZGLrnlIwnhue7cGFUwFFUBmQzwRcXObB3TuL4fUtwIHdlywiRWUZuO/RYiF8+MkedLWN6TXmsEOosmuWXSfguAerb9zxtnhiJiKLKzx4aE8ZWs4FcfTpDgEi+2I85SDCubX3fxSr6rxCxJPlxn3fLUFn6yh+93gHRofZEdhPj9dORHIiJtZ0HtAs4y8zJxX3PLJEwufVp9oxMjSlj5KcJ4v4Lcqbz/WiuCwdX/9ZqZB+7/hV/PFQn7QXxC/HXyaqPMgR73FaFCsX9JzBTTGOr8e6VvBZ5dXZyC9Kw+GnLmM4yIRNvrK/9ONO+LvH0dkSwuu/6MFIcIpbIxyU0iiVoTrVbMjFmnvzcH2NJ0qZeLMQ0O/ydBturU4Jsl975I4vFOKdN/rQ/m8mod55PTdT0xgamsCbv+1F7TafIi+7rppJ2iK40qpMbH60WIgNdE9gzWYvWPBe/EGP1Atn0+j0iLQdTmaGOccXlXtQsSIHLWcH9W7Mvte60DSIjKxU5PkWaC9GzvIcI4G/HA/gp/UXsW/HJfxw80Uh8cDjRUl5xGo7EhHJyFZfiFwWLxi3zo4I1Sw0NIkb1+YKEW+hG3k+NxYWLsCNa3MQCk7ixKE+yTV6lv3T89/vkuKXTGi5xYcm5iRSokOL4UsQ/Z2jKhH1ver4kXxosZ5QrfjP+fP+20GtdpFkJxHWnnT2UDwX2LBRhjlG+eW721yYELLfrPNPCpS3KA3+rjE5PBnVmg0Rry8Nx5/rlSJIRARAO5/aUoClVZncGsk3BdgFT6ZqQ9iaxMNmJyLfO8lCvT38bA+tK50hmcn3pelxmY0Y5qhWikSqVVKeIYXvTINfV/gRdLSMoKM1hJd/0ilh85kv00NKtXhYqtvhw0DPONqah3UuqlC2YzPkpBdm9nO9qY5qN9Rxsq8rhP6uUUnuf/01YMRpVh5hK8KQpCelB7EddRk2B3Z/gPonrsNN6xZK7yUCAODgt9slX9SaxHUkrsQahia0zr7VjzvvLsLpP1wRQmpcnctnCi0WylV1BVIrtPtizuyt54bxnc/9HbfV5YuKjQ5PiVoxJyTsZiiICSXWEKH7Xj/YLnmxZfdSjYOj9J68WmN0pzO01t1fKKHEkKrdXiT3qnURmVUhDDQd7kfjoStoOuwXNYtgEDWRZ5rQt4f9tBJrjAwHx/FEfTMqV+Riy67kiFCaP7+9BCvX5+OFH13C/kdasXpjAb6yV61PRMQ5bjBItuh8dRJJvWnxQ4+ZXJAwUS+yY9Y4gED/OJpPDuDenUtxw2ovLl4Iyph1u1YbLlxc6cHWPeUoX5GN5/d+gPNNAcmHC6cGcWttPj5xlxf/fDeo450rqFbySEvGaTcyrifNM6xL9cFVf+sJppmV1BKDGpl9XEy6XPhYZTY2PbxEvMI2hEWwo2VYeiKeNSqkz0pHe8sw3nq5F+ebrqq2WgPIzHFj295yCbFffqtN1MqT4wYlmJDY5SoMumZYBDVgi4igU/fW1zTa/shiv5HVRfbCImiIcPniyixUrfai+vZ8vYXqrb9rDOebBsRrTEyzm1wjXatgc+HBx0qx7LZcnDnml9MhSfCHlZ1NIwugoBHQxlN2fDaSQoKrrZvtN05PxEky4kWBLKBUSCoQiYicfKUP7zX4pe1YXVeAVRvz8atd/0Fb80hSRKxvOyIJZW+TVf0QLaLs6B+7MtjnIuMzq5ZJzr81BXB0X4eEFevI0f2dONMwgE3fLJEiF53QBGDHp1RLS6yFLqGM2cGKKUdlN6BmQ4RfNLx7rJ/7pyRbGZZjryeLwkkZ1htiKVMsEf01ZmTn5tIjhKNywVZfACl4PD0q589MRL5QjmKsd8O+85HdVTtmdl3dKndyIoEXIxuk1kUAn//TVdz1gE/3Rmqc9WVV3UfQejao7amdn84j+ozNxFNGjIKIR5jjzu96HOdbQ0SS3DEnoKkNJKilkWOm+z3y9GUsqvDge68sl7Cimq1c7xW5fm1/l+oIBIMDH0PLNu56cOUxm8QSEhdE1GUuVOvTXyyWczyf3npuCFQrSq2FwlJOBz497mauO/9gIrFoiFis43eRxlP/i0feeKYzqiAaWU70LYqFT2OLqJMj+60YVOgSxHt0HhgikgXXkCNKVOIcgaMwyEWUakWr0zwlEqtO85CIbsVjXaQk1jEe5VZ75ZTYiQo5deu1y+9sQsv6vx0zFZYPc47oP7KYXXXs/DwJLeUJDVZHy7Q9y4fRI/8F3e6MkruMZq0AAAAASUVORK5CYII=;" parent="1" vertex="1">
          <mxGeometry x="692.5" y="551.5" width="49" height="49" as="geometry"/>
        </mxCell>
        <mxCell id="ItPlpzWooNjg1hFzr201-20" value="&lt;font color=&quot;#007fff&quot;&gt;Region&lt;/font&gt;" style="text;html=1;resizable=0;points=[];autosize=1;align=center;verticalAlign=top;spacingTop=-4;" parent="1" vertex="1">
          <mxGeometry x="320" y="196" width="50" height="20" as="geometry"/>
        </mxCell>
        <mxCell id="ItPlpzWooNjg1hFzr201-21" value="" style="shape=image;verticalLabelPosition=bottom;labelBackgroundColor=#ffffff;verticalAlign=top;aspect=fixed;imageAspect=0;image=data:image/png,iVBORw0KGgoAAAANSUhEUgAAACMAAAAiCAYAAADVhWD8AAABs0lEQVRYCWMUqdv1n2EQgEhDKQamQeAOuBNGHQMPCjQGUSEjK8DJYCLDj6aV+lwWQkaK8bAx7Eg1Y3j15SfDigvPGGYef0RIC9nyRIUMOwsTAwj//POPbIuI0UjQMa++/GJo2XOb4crzzwwLTj8hxkyy1RCMJpDJP/78Y1AV5WYoc1Qm26KPP34TjGKCIUO27VCNKsJcDHk2CuCQJWQWUSEDMgQUTV377xIyD0Wen4OFYX+mBUPuhqsMRx+8R5HDxqFZyIAS/MJIA4Z1l18yrL/8ApvdGGI0c0yLhzoDKJ2AEj+xgGaOATng52/SigKaOaZmx00GMV52hnxbBWIDhna1NqiAjF9+gSHeRIbBS0OMKAcRnZt0JHnJKmfOPP7IMCtUl8Fj9imGKy8+43UUzaIJZuudt98YJh15wADyDCFAdMiQU84QshxdnuYhg24hPv6oY3CFzmjIjIYMrhDAJT6o0gzeQg/UPQG1S1SEucGVnrWCINhTZ558pEnjHK9j0izkwI6ABWsptA2ctvoSA6ihTm2A3zFrLlPbPrzmDao0M+oYXHHFUuqghEuOruI6ErwMABw7bT6nI+YrAAAAAElFTkSuQmCC;" parent="1" vertex="1">
          <mxGeometry x="280" y="189" width="35" height="34" as="geometry"/>
        </mxCell>
        <mxCell id="ItPlpzWooNjg1hFzr201-22" value="" style="rounded=0;whiteSpace=wrap;html=1;dashed=1;fillColor=none;strokeColor=#007FFF;" parent="1" vertex="1">
          <mxGeometry x="290" y="239" width="370" height="551" as="geometry"/>
        </mxCell>
        <mxCell id="ItPlpzWooNjg1hFzr201-23" value="" style="rounded=0;whiteSpace=wrap;html=1;dashed=1;fillColor=none;strokeColor=#007FFF;" parent="1" vertex="1">
          <mxGeometry x="780" y="239" width="370" height="551" as="geometry"/>
        </mxCell>
        <mxCell id="ItPlpzWooNjg1hFzr201-24" value="&lt;font color=&quot;#007fff&quot;&gt;Availability Zone 1&lt;/font&gt;" style="text;html=1;resizable=0;points=[];autosize=1;align=center;verticalAlign=top;spacingTop=-4;" parent="1" vertex="1">
          <mxGeometry x="420" y="249" width="110" height="20" as="geometry"/>
        </mxCell>
        <mxCell id="ItPlpzWooNjg1hFzr201-25" value="&lt;font color=&quot;#007fff&quot;&gt;Availability Zone 2&lt;/font&gt;" style="text;html=1;resizable=0;points=[];autosize=1;align=center;verticalAlign=top;spacingTop=-4;" parent="1" vertex="1">
          <mxGeometry x="910" y="249" width="110" height="20" as="geometry"/>
        </mxCell>
        <mxCell id="ItPlpzWooNjg1hFzr201-27" value="&lt;font color=&quot;#009900&quot;&gt;VPC&lt;/font&gt;" style="text;html=1;resizable=0;points=[];autosize=1;align=center;verticalAlign=top;spacingTop=-4;" parent="1" vertex="1">
          <mxGeometry x="335" y="286.5" width="40" height="20" as="geometry"/>
        </mxCell>
        <mxCell id="ItPlpzWooNjg1hFzr201-28" value="" style="shape=image;verticalLabelPosition=bottom;labelBackgroundColor=#ffffff;verticalAlign=top;aspect=fixed;imageAspect=0;image=data:image/png,iVBORw0KGgoAAAANSUhEUgAAACMAAAAjCAYAAAAe2bNZAAADJ0lEQVRYCe1XbUhTURh+LGHQh4KlQpmgtGCl4A9BSVP8KHCJqCC1qMyIaZBG4OpHyyI0rAzL9aMNIiHBQlKTNFfZKrOUlhlaEoZCHxZGPwyCBlrxHthl3nPu3Wog+7EXxHvePfe9z33e55x3C1lfv/oPAiAq00xYEgA8JApBMpIUsougMjJBpGVQGUkK2UWobO11uTZ8HWLCYyXcyLQTrjmXtPbnwmcy8au0uFhggy4qAUMfBvB59iN00QmIj9CifbQVDY9r8cM16w8X+EQmIz4bjQU22AYtKLiWteCBYZpwHM+pRVeZA/vbdmDy+8SCz/9l4dXApEi93oIjXUZYBy9xtUmNYz2VsA41MeU0oRoO42tiaUTuslNq4Lq8Rtjf3UH76A01GMa+jqA4cSciV0SD1MrfWMRaOj4zhvnf86r30ocpsWnqsylyeRSS1iSj2XnFazEC1NhNoIFXnWlmePJX255ekOl9CVXPkEHVdgu1hMi6MaRCyfU85hu3mavSj6I8pQo190xe+ah6hnYK7RpRkGr2A8+ZEs8OvWEtIRwRcxOh9a3RVuRu0IPw3kJIhnp+Vm9BdeYJ9E89FNYoTTbi/kQPdrcW4qTdBENSqRBHL9M93gFHxTCultxkfhICAd4zJH3Lrk6G33x5E55M8mTKUw+jONGAjLhstBg6YUytYm9PeVHU9ZmRcCEGr7+8ZEcAvawoOM8YkvbBNfeLbVfRDZQjFc70mfHt54wEoZc4va1BuP3doKan57BSE4bKdBOIoDw4Mtt1hbAMnJfjuPWraaeinziwR8I22ITbZQ4hGc4zdMh9UjCtR83/vvRUU16EU4aOc3K+2rFOu+VRxbC8FmhrewtqJ/2JgiPTP+VArjaPDUPRDZSTzyclnCifEZejWJtrU/MLK7Zq9cjXFYlq+ZUjxcm8NOFFwSlDLTjYvpcNPb2uEKSUWstERUW5LXFZyNcVs9pK9UKUfsRRX2mb01yhGeNP0JevB+/vovttx4LT2bMmzTROGTeACjQ7re7lovznPLMoT1V4SJCMgjD8oFQCLkY+2CYllQNKmVA6bAIh6NfBX4xpCXYIV4ogAAAAAElFTkSuQmCC;" parent="1" vertex="1">
          <mxGeometry x="300" y="279" width="35" height="35" as="geometry"/>
        </mxCell>
        <mxCell id="ItPlpzWooNjg1hFzr201-29" value="10.0.0.0/20" style="text;html=1;resizable=0;points=[];autosize=1;align=center;verticalAlign=top;spacingTop=-4;" parent="1" vertex="1">
          <mxGeometry x="370" y="286.5" width="80" height="20" as="geometry"/>
        </mxCell>
        <mxCell id="ItPlpzWooNjg1hFzr201-31" value="" style="shape=image;verticalLabelPosition=bottom;labelBackgroundColor=#ffffff;verticalAlign=top;aspect=fixed;imageAspect=0;image=data:image/png,iVBORw0KGgoAAAANSUhEUgAAACEAAAAdCAYAAAAkXAW5AAAB9UlEQVRYCWNU6RD5zzCAINe6lIFpAO2HWz3qCFhQDIqQYIG5hhTaTsmJId44nUFTXIeBj52f4cKzMwzrrqxgWHd5BSnGwNWS7IgS+xoGAykThrpdpQz33t4GGyTKLcZQYl/L4K0RyJC8OhxuOLEMkqLDVdWLwVzOGmwRzAEgi15/fcVQvi2X4d672wzpFvnE2g1XR5IjXFQ9GWadmMzw889PuAHIjAVnZjJ4awYgCxHFJskRBlLGDNdeXcZp8NOPjxk0xXRwyuOSIMkR7CwcuMyhSJxgwgzSjWCQ4ZcDW8LLwceQYJLO8PnnJ7yW5tmUgeU//fjIAIoiQoCwI3QiGFZcWAhOfCcfHSVkHgOymk6vydRxBMjW88/OMIDim1aAYEjgspidhZ0BlGVFuMUYdt/eRpEjSUqYyA7q95vFIM0vx/Dp50eGpZEbwSUnsjwpbLJCAhQKykKqDFnr4sF2BelEMEjzyzJ8evWRFLvhaslyBKiwAiXAuaErGd58fQU2DFRakgvIjg5Q3XHq8TGGn39+MMQsD8BZihLjMLJCAmbw668vGUBRQykgOyQotRhZP0UhQW77AdkBIDZRjiCmqEY3mBQ+QUe07q1h4OPgJ8VMuNpD9/bB2fgYBB1x/dUVfPqpIjcoEuaoI2BxyQLqCw4kADWcAQ5Bi3ykDvqJAAAAAElFTkSuQmCC;" parent="1" vertex="1">
          <mxGeometry x="310" y="323" width="33" height="29" as="geometry"/>
        </mxCell>
        <mxCell id="ItPlpzWooNjg1hFzr201-32" value="&lt;font color=&quot;#009900&quot;&gt;Public subnet&lt;/font&gt;" style="text;html=1;resizable=0;points=[];autosize=1;align=center;verticalAlign=top;spacingTop=-4;" parent="1" vertex="1">
          <mxGeometry x="345" y="327.5" width="90" height="20" as="geometry"/>
        </mxCell>
        <mxCell id="ItPlpzWooNjg1hFzr201-33" value="10.0.0.0/24" style="text;html=1;resizable=0;points=[];autosize=1;align=center;verticalAlign=top;spacingTop=-4;" parent="1" vertex="1">
          <mxGeometry x="430" y="327.5" width="80" height="20" as="geometry"/>
        </mxCell>
        <mxCell id="ItPlpzWooNjg1hFzr201-34" value="" style="shape=image;verticalLabelPosition=bottom;labelBackgroundColor=#ffffff;verticalAlign=top;aspect=fixed;imageAspect=0;image=data:image/png,iVBORw0KGgoAAAANSUhEUgAAADEAAAAxCAYAAABznEEcAAAHaklEQVRoBdWaW2wUVRjHD5e2VGtbWqBUShHCrTTcYmPBUBOBgMhDeQCiAU3ogyVeiA/lpQlJfWB5EBODl9AHSyISE+EBTEBCBBNLpBAaLYai0IgUsBTZQsulloI1v297Zmdm50x3trskfgnMzpkz3/n+3/2c6YiBgYEB9T+n0cmSP3yjT7X8GFa99x6rrs4+Fe7oc7DOzBqliqY/LWPzK/JU0YzIb8ekBG9GDMcSN670qubjt1TLyS517dL9QCLkF2ao+RX5at6SsWrmwpxA77onJwQCgQ/Wt6vW07ctftl56ap0Ua7KK8hQU0uz1Oj0kSq/cIx6KmuUujoI8PL5u+ru7UeqpTHssBRWWVNdrOaUj7X4BfkRCERP10N1qL5dnTpyU9ZA8LLl4xLSprZi09GbFiAsUlldrKaWPhMEg4obxNnjt9TeUJvqf/ivyswarZauK1QrNk5SaekjAy3oNbnx4A11eM81hZKglRuLBIzXXK+xuEAcbriqDu+5Ku9XrJmoVm8qUlghmYRyjn11XR3bd10URfBX1c2MS0m+IHrvPVJfhtpUS2OXMHujdroqWzYumbLH8CJu6mt/F6sQK9Wh2Sp/YkbMPPuAL4hPay5I8KL1d3eWJDUt2oVw/yZd19f+Jhlv4pRMtXX3XHFh9zx9b3ToA5/8KQBIhVvr5woAtHTim7/E3JpBKq5oHsEJcBLAF3WXfJfxBEGgISxBW709as6vP/pDAe7jLeetIPTlPoyHsnZolkKJpHLWNVEMCGqAfoEYsFdWYgTCIqFN5+RqYpyMcdwYJQIIpRKbXhQDgixEpiALmYIYYKRDLILVUkms9VrNNFlCy+Zez9E7YQXQUgdIoyYiYzQduSlpFxeDCqZkCijTO4xTyKgBQWnxqgnqh/0dEugoben6Zx0sHJbQbhRPHcjOS7NyeFdnpEg5OHvcXDjT7TEa39DqTZNl4rF9sYnFsgR+fvHnbiliuJIfHdh12fJPmK+uiizweeOLnq+RMreta/Z8Fu8gxY/eiiDHC+wyWpY4dzLSzFVUFlgaNi2gXQ630gBMc5M5vmjVeGHXfCLsYGtZ4uzxv+UBiE2k+yQK0FvbZyuuT5KQDRnwGjIlsQuJJSgobGLIyfaU6hawsnqKBBWF6EkDQBYAzCnPlez5iy3dCgj6e6hsWcRcbuH1PZpY+95zlgb0eDKv+DyxaaJ5g55yzg1CZ5cJxWNM78p4qtsOXITmj/pz6rvInsUt0OTBLW5PV7/1SJyqJxxJkUN1i9QEagmBVR2alfR2/MG9x1Zfxt4FokbYKTs/TW713oMbcSeNaqg9wpNqO3QCAYjbIlrGnnDUEoMgIpbIGURpR+71O9VtB9qmb4O8gJCAaI20UsWd+vsiR09s7uMhr7YDa+rdn4kHAft2xU+mx45x7UaA4F9OXlrMQYJslbU7Rf0saiIHR4+bRNoODzZxD/U/jJ7xaVfSriWWiNzcV+GOf4bcCrKqqe0wVW/ddnCa8f6uUqPgeh4TiAUsANHa6CKMC2EBXEqTgNCxoANcPzRdddvxZu10i7lpbiLjaNoOwK6c7sGA1tUa/gKCAy8IS/iRzhqpbjvQNGRvLrVcne298lO7EjcSyTMWZssD3QTqF9zXVLcdaekjrObTCwDytJ65I2LNWBA9YBNLsCHHPFRk/NJU9AqKIw2f3ZRuoMO5R7ukViyhs5Obnz46LVsebZHEErjJgpci3WtrU/R81c1g7442OUppqLtoVVb3nOHesyU2AaBboFHFne2KtgpDyQu5sn7jt51GOXSp50hzR1WLHKcYJ6fgQdPRyHbh+aXOAzwLBCkMc+p9tp8MaIL2/cPNv1o7PL/5yXiGm7O/xmsq1hQ4WFogeFi5uVgeHqq/4usubIgWvzpByj4nde7+xrFCkm6oTcQK21J7ZoK9BLZeB1/0O1XQ89IyRqryV8ars9/fEsbX2x7IHoAWOhVEwtG1acUG50kH61mW0IuT2iC+Q+BaXsTJNQKjGQKRo5h4iGOdoESFbvjgorxmOoXxPFBm34D/UdprG+ZbO7lt65utDyJwZZfnPgMKKqTffJT0Wc0FsTItyzs7S6w6Yn8vxhJaOF4inbHTghmkKzZ1gh4olQBYj3MwOl+UySZMry/C2P7ztATPMWOoqkWAAAgm50/fkQ+Na7dMdeRpG7+k/ERpANDZiIMJvwMMIwikISb4RkF9SHW/pNGjPKyPBdA8yhvqg6QvCBgDAKZkCNzo9ZppxoNmLUiiV9YgiHFj0mi8H3aGBIFAmJfWmEoN0WsR1EG/cprAUcjsexRcBwDuemB6Py4Q+mWK2qHd7dYHFtLrksqChD+m4660Evg+isJ9VmyYFPirbCAQgGExvnKe2N9hbdRxs9LyXFVSnisBj4W8MgnuwsaLdppuFLfRRCU21QE9x3QNDEIzIlYaD3b6/kkEqRGApqJJsiBoX15XOKxslzAIDYYrPs0fp7Se6RbroHEvIlVD/D0HwgMiGZQUECZBANd795Fvjje9G2Q8pSCCCDKcuf8B0H25P988FHsAAAAASUVORK5CYII=;" parent="1" vertex="1">
          <mxGeometry x="330.5" y="380" width="49" height="49" as="geometry"/>
        </mxCell>
        <mxCell id="ItPlpzWooNjg1hFzr201-35" value="" style="shape=image;verticalLabelPosition=bottom;labelBackgroundColor=#ffffff;verticalAlign=top;aspect=fixed;imageAspect=0;image=data:image/png,iVBORw0KGgoAAAANSUhEUgAAADEAAAAxCAYAAABznEEcAAAHT0lEQVRoBdWaW2wVZRDHByi0xVJKC71IWwQBgYZbaCwYamIhKPBQHsRIwAd4sMaoMbEkpr7gA33SxOAl9EFIVGIiPIAJl0DAxBIpBAIloVwjUi69wClSwNKL1Pxm+2337Nlzunt6ijDJObv7nfm+b/7zzcw33+wZ1tvb2yvPOCUlSv5Qc6fU/x6Sjgf/SltLp4SaOsOGTk0bIflTn9O2uaWZkj/Nug9jivNh2GBWovlah5w6fEfqj7bJjcsPA4mQlZcsc0uzZM7icTJ9/thAfd3McYFA4N01jdJw/K49XnrmKClamCGZOckyuShNkkYNl6y8FBmdNkKu9wG8eu6+3L/bI/W1obCVYlVWVRTKrJJx9nhBbgKBaG/rkj01jXJsX6vOgeDFS8fHpU2zinUHWm1ArEh5RaFMLhoTBIP4BnHy8B35sfqKdHc9ltS0JClbnSfL1k2UkaOGB5rQi7l2d7Ps3X5DUBL0+rp8BePF69XmC8Tebddl7/br2r90Va6sXJ8vrEIiCeUc/OmmHNxxUxWF82/YNN2XkmKC6HjQIz9UX5H62jYd7J2qqVK8ZHwiZY8YC7+pqbqoq4KvVFTPkKzc5Ag+Z0NMEN9UnlfnResffDEzoWHRKYT7nnBdU3VBI17upFTZuHW2mrCbzzxHNehdX/+lAAiFG2tmPzEACIbmERwHJwB8v+mykdfz6gkCRzvyyy01oYrNAy+n58iDbCRgVFS/JCiRUI5So1EECPYA0wEfSOTOGk2IaO2YMUoEEErFN70oAgRRiEhBFBpqJ/YSyN2GEt+unKLNRjY3TxgIVgG07AOE0aeFFi3PVotAPkzdTWEgjBm594FLp+/J+6V/2J+vPjrnHmfIn1euL9A5Du64pZbinNDOYonPCIsdYkqxCD5D7LJEkKEgfMGkIGx+5FY4ed2+1jAZbRBnj1rJXGl5TsQuSU7zXe0rKicrYggAn5afNI9DcnWmIAuXT1AQp46EvEGcPHxbhQCxXzIrgA8VJPB8wPz/POjRzc7kU7QhG6uD1ZBNMC+k3wjDIYaYHE9IBcDHW4p0wER9YbJu3wPArJIMDT5natsEh7dBkN9DxUsm6HUwX2iudndL4CFyJqX6CulzSjMVxFk3iLYWKwXOLkwJPLm7Aym1Vxg0fBzoh5kH13X6/PQBs+OCviNue1u33VvNqT1kgRgoW7R7xbjp6Xqsvy5aka2nPMMaan4kdftvy/jcFMFBnXRkZ5PaeHfXwDWL9KyR2tXpKxaIPlSJPCOUvDEh7OyMjQMCv1u5wYr5BginOxzVDxkZ20P9K6GbnUE1tg+ln8H+Tx4UQWpkgCuI7k5rGTncP0sEEEil7rez/iV6msEYUzKmpT5hPTyUUNOjAY+CfsG5Y7zpd+l0u+Zg5jnoFRNiBTApQwrC+IIzbBmGoNcFZVl2CSZIXyqE6ZlW5InV716fQ5vdGl4FQcELYiUGSyRp8RbB/Mzd0mglm8aU6KMgps1PF9kuQhJIwhWU2AM4ebE3ODXkHoezCmcCQ2h+4YpsO+E05xl+p57rRQ0n/tbmafP6C2wKgnSXyUmsqDT43fTIZSDyLs4i2Go0JZCfUcFwU+qYJDvdoLpiwr3hc0dMUzotXtq/YaoUCDPvVSt7bajrr6+agaJdAb/mkymaXcLTE2PHNcLpZre+wE40TZikv+HhAGQ+y9ZOtKdnpVAYZRynonUl4Jr5cobWWGt/bQnL1e0RotxwgEpKHq5JGTvv5TPtnpyk1lBWboru2JgLQh3acVOO77eOAaaje0c37XUHLL4FZeEFPBsEuTrOYuwyyLlibF9UQUt8YpGJQBNfHK1smJk5l9DgdFjnOJg5iSVWU7oqx/mT5di08GP5e4VaNN5Tc03zdmPzADPn77DefQ9EI4pdTtPw4qPNHDfL3nreNiknL68DvGjXlqs6Pv3cQO2VoCOHjN92NulqgJoOEKbgPFe7B4HHCKcdfH75fblCwDFVmGVrLZmcU0TUYmEmirAKaDeek55zgsHes0NXb6hXM33zwxdsxTrHjcj48AWcFdOo+eyCnSk6Oz2pe5Wh6qICYNWiVWEiQCAgiOmEk1Jm92PrQwEMP8SMCcvUZY2PuufyBAGzKeYyyLeV55/oiqC0n7/8045G1GNjZQIRPuFESVQyuygbzLubZ+hG4+RJ9D0+wOqjPKPMgXKxmCAQkF2UQYkQaGNN5RQ7TUg0AObY9vklNWMioN8XOwOCQFCWl5eOvHyECKf4TTxh1Qs4Gxn7AJERIiICwCuUe/X3BcJ0PLa/VfZsbbRzHEr/i8tzwgoChtfPFXMllWBPQlGYD7lS0LeygUAgGJPxltOUWWjDzIpKMmRmSYYmZqyQVyTBXDh4kU6TjTpTFMKnuxrvRxHwBAZhBsZXqPTF+ksEoRGAaNyLCBY47Wur88KyUi/eWG1xg3AOik3z55SGE/c0FKNxLzJpBv/nQHhAJIISAiKaIIDruN8z5KnLkIKIBi7R7f8BethvAmSAJIIAAAAASUVORK5CYII=;" parent="1" vertex="1">
          <mxGeometry x="445.5" y="380" width="49" height="49" as="geometry"/>
        </mxCell>
        <mxCell id="ItPlpzWooNjg1hFzr201-36" value="NAT gateway" style="text;html=1;resizable=0;points=[];autosize=1;align=center;verticalAlign=top;spacingTop=-4;" parent="1" vertex="1">
          <mxGeometry x="310" y="431.5" width="90" height="20" as="geometry"/>
        </mxCell>
        <mxCell id="ItPlpzWooNjg1hFzr201-38" value="Elastic network interface" style="text;html=1;resizable=0;points=[];autosize=1;align=center;verticalAlign=top;spacingTop=-4;" parent="1" vertex="1">
          <mxGeometry x="395" y="431.5" width="150" height="20" as="geometry"/>
        </mxCell>
        <mxCell id="ItPlpzWooNjg1hFzr201-39" value="" style="rounded=0;whiteSpace=wrap;html=1;fillColor=#dae8fc;strokeColor=#007FFF;" parent="1" vertex="1">
          <mxGeometry x="310" y="550" width="340" height="217" as="geometry"/>
        </mxCell>
        <mxCell id="ItPlpzWooNjg1hFzr201-42" value="" style="shape=image;verticalLabelPosition=bottom;labelBackgroundColor=#ffffff;verticalAlign=top;aspect=fixed;imageAspect=0;image=data:image/png,iVBORw0KGgoAAAANSUhEUgAAACAAAAAhCAYAAAC4JqlRAAABzUlEQVRYCWMUqdv1n2GAQKmDEgPTANkNt3bUAUM3BMR42BisFQQZZAU44fFJDoOFVE2qItwMkwK1GUD0lRefGeQEOBjYWZgZ4pdfYDjz5COpxjGQ5ACQr7enmjHU7LjJsOL8M7hlTirCDAsjDchyBElpoMVDnaFlz20Uy0Gu2HfnLUPa6ksM3b6acEcRyyDJAU6qIgwLTj/BavbRB+/B4qCoIQUQ7QAdCV6G22++4jX7yvPPDDqSvHjVoEsS7QB+DhaGn3/+oevH4LOzEG0kWC9pqjGso1yAkVBl9LrRlWxbAuafYYClDWyGgCojgtnw8YfvDEb9R7Dpxyu2IdEErzxMcsCjgGwHmMjwM5Q5KjOAcgclgCwHgErEFbFGDGzMTAyLIvUZvDTEyHYDWQ6INJRimHXiEbhUzF1/lSFAR5y+Drj8/DODsQw/uCZ0VBFhePThB30dAMpaxx68YzieawW2uPvAXfo6AFQiTjz8gOHVl5/gaCCmhMTlQrLSAC7DyBEf2g4gp4REDyWCRTGouQVq+5EKQLUnMYCgqoVnnjBYKwoRYxaKmu03XhOVPQk6oGs/+VkMxUU4OEM7EeLwFEnCoyHAAmoWDRQA5S4AoxF3kvL18tsAAAAASUVORK5CYII=;" parent="1" vertex="1">
          <mxGeometry x="310" y="550" width="32" height="33" as="geometry"/>
        </mxCell>
        <mxCell id="ItPlpzWooNjg1hFzr201-43" value="&lt;font color=&quot;#007fff&quot;&gt;Private subnet&lt;/font&gt;" style="text;html=1;resizable=0;points=[];autosize=1;align=center;verticalAlign=top;spacingTop=-4;" parent="1" vertex="1">
          <mxGeometry x="345" y="560" width="90" height="20" as="geometry"/>
        </mxCell>
        <mxCell id="ItPlpzWooNjg1hFzr201-44" value="10.0.0.0/23" style="text;html=1;resizable=0;points=[];autosize=1;align=center;verticalAlign=top;spacingTop=-4;" parent="1" vertex="1">
          <mxGeometry x="430" y="560" width="80" height="20" as="geometry"/>
        </mxCell>
        <mxCell id="ItPlpzWooNjg1hFzr201-45" value="" style="shape=image;verticalLabelPosition=bottom;labelBackgroundColor=#ffffff;verticalAlign=top;aspect=fixed;imageAspect=0;image=data:image/png,iVBORw0KGgoAAAANSUhEUgAAADEAAAAxCAYAAABznEEcAAAIKUlEQVRoBdVaW2xUVRTdt53aJwzDoxEMVOODGAWFGDCB+qHGBNQEH4mE1oTEHxCMRksQH1+QxsboD1Akxj8eCTFGY0G/lADGZ3xQ2j8CFgGBQKfQ0hbajtlr733uuZc77bTw4UzI3HvP2WfvtfbrnDslOLVhUi4gIgrwT75wn4uMBZRjKRnDAlsTk8OcJ2treD3r1bVylTEV8eZzTk5wRddC3uwERCW8EiZz5K58k+PV3hieeTWPKcZEOcwp0vh6b63oEBuq1tMdJNswuwzD7OSYhD7g4hlNBMjE/odESgx8MUcEkSh2IpJOfhoVYY2UWAFLDUjhFltqaTpplyjSiKS4HgIGHwQUaO/kjYPHuFnnuNliXsc4WCprcnjWUOoyCsrTVP34O3TbXfXS0fJ8a7+T2cgD0UjPSbr26zYa6jokGACJ26/uI4o7BdsK2sChi94kkaqFjVS5oJGu/rjdclQadAyobGbG0Ns4iShV9xhVPvMpXWmdyzDzEklxTXAEIl69FRHJEY0MZKnvu2bZiRkGO4bx8hU3DE2f3TXcncsHe6h80XpsgrwmH5FITUAl6uLW1AisMjhPp7OBGw0L5mNymAdFYanP8fXs7xKIJRkx6p4BdqFTouASAVJAw9kuGjp7NPn4YMSgbGwi/hHDzMKurk+xAELLYJMKdoKpNdDZRoOdX5uP8ttgPzsAjCFsNG4xBwk4OUMk3Rg/Gg5pJBRnctgLiMjUl/dQ+ukPcGisXNhAMzZ0QFdJpo5q3z9NpVPqYHvaWx1U8XAj5Cat2Ek1K3aKzTwR0Qpy0RScmurWLsIDoJ0KY3lpYR+DCIsFFWkAYsNBZdqlHY+7OTZYaXKyBvg5C/ISUUyY9+TsmW0ffy2TQ6ZrakrX4BmtAL+jMDSW88Zq6tfS5Cc3CTjEf3xfvd9spP6ftkEt9AKHIKx4dD1VLl5H2a33SzWy3QhOwaP7hG50lnIsOEaNZFa2UklFmsrvrqfeI610/Ux7hByio6RhV40bRQaTun0e1SxrobI7l2Ltlb0rEUFXIybsY2EfOpxyc+OO7QRGJzLS3wMTnB7Xzxyj/o620JvCQEmJt4yI9jfMVSjI3IDoYv9bsQoREXDj1nhiRJJ37AKIZL/cBCDVjzQolAkcUTSvL3+xRgl73QlaNXyIRNi1sDl7RKTFstM537ywsVvRzViPN25yVYsaxPMyLUU93rOW0q9Y0Ii7gT93RU4PyC2VEQxRjIgQpyW7AAeqcRJJP/V2WMxMUlOBE7bQQ6Phm7S8RUj8sSuyV/GgBMs8eaOzeR7pBMN8MkwgUlKVpprFq5zXh7q7qL+9jU5vmY+xOR9nxZIX8kKJGInzm++QdDKsXu6DCJcV2pJ4y7LBNucUFGlckiIyY9V2qrh3KVkhXzvdTlfb91NZZjYMO2+Jy1xaFkLE0qU0UwcYw9m/eRmcwgBtnq8C0SajEZHuZEg4FWIRSU2bQz0Hd1D2Wwk5jBDRzKbDYTrBrrZpL5pjEgF0oulNHbg7926NghUiOi1joxAJu1MeItDAiQNXhMX+77ZnEYlZTYfEFtJpfEREN9HFrUtcVCc//wmVzZxv+HGIZDmXQuhK0YhE3yeSiOiYvXeAT46I08p9zEvjJaKVdu3sUbkLArp+4ggNd3cJqcEeGuxsw1kr8s4TIxLZscE2RsQexRvq6YBo1oZDLp3sxwbnLS1MrNXWnS+1WKaWD4xEdOHDB+jq77vtwA8ilr5WxM6GR8TbJwRgnAi0a4r6+8iVX/ZiatpzzVKIE3hDtHTq/aEVkUDGWjThNStoAZCPCLoTNjUUZAIRhsra/bwMArr8/Q54CiRU5gYjY0VEPdR3pFW8DgzehlYgEfdSlJeIGgrnxcjUF5qplI/VbJhJ4oYL0HOEeVUFLBUsteAcIpryojgk+/nayI4NXQUQCXdsO2bAGyEQhccZGGm/fPDj9wb+VM9bjqvlL+eGf7znSe4n+MIcxKls1oO4wTsG33mkjXAhRKI7dgIRMScG4EHdR87vWg9MmeUbKbNsI3Z1J1vgzUh/D/X9tpuy+9aCIIjGnOjqcJSIRH8V17RA9Nkr4j+LutQGIqJeI6LuAy3Ud3Q/9f68h068nqELe9Zhdz/5Rob+2fwQ6Jz9qJ663pxCQ5e6KPvVJjrVlAb4weOHqXvfq6If9tRZZtsbMyzg4qcvBfJrB8bwxSkjbjQicJEp4ylfzhsPdXhhUF0wrMNOzptjGzZuV1kjm6yN5SMSdL4y3c25vOUYaGzvfO8g9f51gC7tb4mEXIKkcpbnsVowHSxrNWI27FnmrGgUiqcv71p2Csvxn7tCj6uTQTuMiPkV6j3PJ0YE83pE4aBBF9HUFc1UvagBBiJe5QfTaXbZoD/m6YysNTn58UwBQyKZiBGdKJGKe5ZSKjNbaswDaPoioCeQWhIJr1iVoLLRXDWvxr3ihENHRLyljmExfOLrveebIRLu2N4xnHON7XN740/VfUto5Ik1uHd5zhKWuyIm35z0kfEczljD/ZdlnoGPY0OUFhtiSVx7bPUMrSb7TScsVrZaPXcJ1b60hUqrJvtQR7234jWhoYtddO6zRrRe5wQQ9RzhPTsnQJHCM8c4J4Vrg/bVtQk/nkWJhKDCrgUwnmHIMGoz7IxZZMQoREw4vt57Hg+RyE/7bEA6SpjjGHNfYde62WJnlVIHCXsBpzHqRa7sGWS2P+bVk2uxrlMUIRH8fSLuVTgJ1IsjIvJHFvO+F6JiIqL7BDJU6qEIicj/stH9wHm/yIjIf4uwHVsCUnQR+Q/vcb7LAF9SsgAAAABJRU5ErkJggg==;" parent="1" vertex="1">
          <mxGeometry x="570.5" y="454.5" width="49" height="49" as="geometry"/>
        </mxCell>
        <mxCell id="ItPlpzWooNjg1hFzr201-46" value="EC2 Web Server" style="text;html=1;resizable=0;points=[];autosize=1;align=center;verticalAlign=top;spacingTop=-4;" parent="1" vertex="1">
          <mxGeometry x="540" y="504.5" width="110" height="20" as="geometry"/>
        </mxCell>
        <mxCell id="ItPlpzWooNjg1hFzr201-47" value="" style="rounded=0;whiteSpace=wrap;html=1;fillColor=#d5e8d4;strokeColor=#009900;" parent="1" vertex="1">
          <mxGeometry x="790" y="323" width="340" height="217" as="geometry"/>
        </mxCell>
        <mxCell id="ItPlpzWooNjg1hFzr201-48" value="" style="shape=image;verticalLabelPosition=bottom;labelBackgroundColor=#ffffff;verticalAlign=top;aspect=fixed;imageAspect=0;image=data:image/png,iVBORw0KGgoAAAANSUhEUgAAACEAAAAdCAYAAAAkXAW5AAAB9UlEQVRYCWNU6RD5zzCAINe6lIFpAO2HWz3qCFhQDIqQYIG5hhTaTsmJId44nUFTXIeBj52f4cKzMwzrrqxgWHd5BSnGwNWS7IgS+xoGAykThrpdpQz33t4GGyTKLcZQYl/L4K0RyJC8OhxuOLEMkqLDVdWLwVzOGmwRzAEgi15/fcVQvi2X4d672wzpFvnE2g1XR5IjXFQ9GWadmMzw889PuAHIjAVnZjJ4awYgCxHFJskRBlLGDNdeXcZp8NOPjxk0xXRwyuOSIMkR7CwcuMyhSJxgwgzSjWCQ4ZcDW8LLwceQYJLO8PnnJ7yW5tmUgeU//fjIAIoiQoCwI3QiGFZcWAhOfCcfHSVkHgOymk6vydRxBMjW88/OMIDim1aAYEjgspidhZ0BlGVFuMUYdt/eRpEjSUqYyA7q95vFIM0vx/Dp50eGpZEbwSUnsjwpbLJCAhQKykKqDFnr4sF2BelEMEjzyzJ8evWRFLvhaslyBKiwAiXAuaErGd58fQU2DFRakgvIjg5Q3XHq8TGGn39+MMQsD8BZihLjMLJCAmbw668vGUBRQykgOyQotRhZP0UhQW77AdkBIDZRjiCmqEY3mBQ+QUe07q1h4OPgJ8VMuNpD9/bB2fgYBB1x/dUVfPqpIjcoEuaoI2BxyQLqCw4kADWcAQ5Bi3ykDvqJAAAAAElFTkSuQmCC;" parent="1" vertex="1">
          <mxGeometry x="790" y="323" width="33" height="29" as="geometry"/>
        </mxCell>
        <mxCell id="ItPlpzWooNjg1hFzr201-49" value="&lt;font color=&quot;#009900&quot;&gt;Public subnet&lt;/font&gt;" style="text;html=1;resizable=0;points=[];autosize=1;align=center;verticalAlign=top;spacingTop=-4;" parent="1" vertex="1">
          <mxGeometry x="825" y="327.5" width="90" height="20" as="geometry"/>
        </mxCell>
        <mxCell id="ItPlpzWooNjg1hFzr201-50" value="10.0.0.0/24" style="text;html=1;resizable=0;points=[];autosize=1;align=center;verticalAlign=top;spacingTop=-4;" parent="1" vertex="1">
          <mxGeometry x="910" y="327.5" width="80" height="20" as="geometry"/>
        </mxCell>
        <mxCell id="ItPlpzWooNjg1hFzr201-51" value="" style="shape=image;verticalLabelPosition=bottom;labelBackgroundColor=#ffffff;verticalAlign=top;aspect=fixed;imageAspect=0;image=data:image/png,iVBORw0KGgoAAAANSUhEUgAAADEAAAAxCAYAAABznEEcAAAHaklEQVRoBdWaW2wUVRjHD5e2VGtbWqBUShHCrTTcYmPBUBOBgMhDeQCiAU3ogyVeiA/lpQlJfWB5EBODl9AHSyISE+EBTEBCBBNLpBAaLYai0IgUsBTZQsulloI1v297Zmdm50x3trskfgnMzpkz3/n+3/2c6YiBgYEB9T+n0cmSP3yjT7X8GFa99x6rrs4+Fe7oc7DOzBqliqY/LWPzK/JU0YzIb8ekBG9GDMcSN670qubjt1TLyS517dL9QCLkF2ao+RX5at6SsWrmwpxA77onJwQCgQ/Wt6vW07ctftl56ap0Ua7KK8hQU0uz1Oj0kSq/cIx6KmuUujoI8PL5u+ru7UeqpTHssBRWWVNdrOaUj7X4BfkRCERP10N1qL5dnTpyU9ZA8LLl4xLSprZi09GbFiAsUlldrKaWPhMEg4obxNnjt9TeUJvqf/ivyswarZauK1QrNk5SaekjAy3oNbnx4A11eM81hZKglRuLBIzXXK+xuEAcbriqDu+5Ku9XrJmoVm8qUlghmYRyjn11XR3bd10URfBX1c2MS0m+IHrvPVJfhtpUS2OXMHujdroqWzYumbLH8CJu6mt/F6sQK9Wh2Sp/YkbMPPuAL4hPay5I8KL1d3eWJDUt2oVw/yZd19f+Jhlv4pRMtXX3XHFh9zx9b3ToA5/8KQBIhVvr5woAtHTim7/E3JpBKq5oHsEJcBLAF3WXfJfxBEGgISxBW709as6vP/pDAe7jLeetIPTlPoyHsnZolkKJpHLWNVEMCGqAfoEYsFdWYgTCIqFN5+RqYpyMcdwYJQIIpRKbXhQDgixEpiALmYIYYKRDLILVUkms9VrNNFlCy+Zez9E7YQXQUgdIoyYiYzQduSlpFxeDCqZkCijTO4xTyKgBQWnxqgnqh/0dEugoben6Zx0sHJbQbhRPHcjOS7NyeFdnpEg5OHvcXDjT7TEa39DqTZNl4rF9sYnFsgR+fvHnbiliuJIfHdh12fJPmK+uiizweeOLnq+RMreta/Z8Fu8gxY/eiiDHC+wyWpY4dzLSzFVUFlgaNi2gXQ630gBMc5M5vmjVeGHXfCLsYGtZ4uzxv+UBiE2k+yQK0FvbZyuuT5KQDRnwGjIlsQuJJSgobGLIyfaU6hawsnqKBBWF6EkDQBYAzCnPlez5iy3dCgj6e6hsWcRcbuH1PZpY+95zlgb0eDKv+DyxaaJ5g55yzg1CZ5cJxWNM78p4qtsOXITmj/pz6rvInsUt0OTBLW5PV7/1SJyqJxxJkUN1i9QEagmBVR2alfR2/MG9x1Zfxt4FokbYKTs/TW713oMbcSeNaqg9wpNqO3QCAYjbIlrGnnDUEoMgIpbIGURpR+71O9VtB9qmb4O8gJCAaI20UsWd+vsiR09s7uMhr7YDa+rdn4kHAft2xU+mx45x7UaA4F9OXlrMQYJslbU7Rf0saiIHR4+bRNoODzZxD/U/jJ7xaVfSriWWiNzcV+GOf4bcCrKqqe0wVW/ddnCa8f6uUqPgeh4TiAUsANHa6CKMC2EBXEqTgNCxoANcPzRdddvxZu10i7lpbiLjaNoOwK6c7sGA1tUa/gKCAy8IS/iRzhqpbjvQNGRvLrVcne298lO7EjcSyTMWZssD3QTqF9zXVLcdaekjrObTCwDytJ65I2LNWBA9YBNLsCHHPFRk/NJU9AqKIw2f3ZRuoMO5R7ukViyhs5Obnz46LVsebZHEErjJgpci3WtrU/R81c1g7442OUppqLtoVVb3nOHesyU2AaBboFHFne2KtgpDyQu5sn7jt51GOXSp50hzR1WLHKcYJ6fgQdPRyHbh+aXOAzwLBCkMc+p9tp8MaIL2/cPNv1o7PL/5yXiGm7O/xmsq1hQ4WFogeFi5uVgeHqq/4usubIgWvzpByj4nde7+xrFCkm6oTcQK21J7ZoK9BLZeB1/0O1XQ89IyRqryV8ars9/fEsbX2x7IHoAWOhVEwtG1acUG50kH61mW0IuT2iC+Q+BaXsTJNQKjGQKRo5h4iGOdoESFbvjgorxmOoXxPFBm34D/UdprG+ZbO7lt65utDyJwZZfnPgMKKqTffJT0Wc0FsTItyzs7S6w6Yn8vxhJaOF4inbHTghmkKzZ1gh4olQBYj3MwOl+UySZMry/C2P7ztATPMWOoqkWAAAgm50/fkQ+Na7dMdeRpG7+k/ERpANDZiIMJvwMMIwikISb4RkF9SHW/pNGjPKyPBdA8yhvqg6QvCBgDAKZkCNzo9ZppxoNmLUiiV9YgiHFj0mi8H3aGBIFAmJfWmEoN0WsR1EG/cprAUcjsexRcBwDuemB6Py4Q+mWK2qHd7dYHFtLrksqChD+m4660Evg+isJ9VmyYFPirbCAQgGExvnKe2N9hbdRxs9LyXFVSnisBj4W8MgnuwsaLdppuFLfRRCU21QE9x3QNDEIzIlYaD3b6/kkEqRGApqJJsiBoX15XOKxslzAIDYYrPs0fp7Se6RbroHEvIlVD/D0HwgMiGZQUECZBANd795Fvjje9G2Q8pSCCCDKcuf8B0H25P988FHsAAAAASUVORK5CYII=;" parent="1" vertex="1">
          <mxGeometry x="1055" y="380" width="49" height="49" as="geometry"/>
        </mxCell>
        <mxCell id="ItPlpzWooNjg1hFzr201-52" value="" style="shape=image;verticalLabelPosition=bottom;labelBackgroundColor=#ffffff;verticalAlign=top;aspect=fixed;imageAspect=0;image=data:image/png,iVBORw0KGgoAAAANSUhEUgAAADEAAAAxCAYAAABznEEcAAAHT0lEQVRoBdWaW2wVZRDHByi0xVJKC71IWwQBgYZbaCwYamIhKPBQHsRIwAd4sMaoMbEkpr7gA33SxOAl9EFIVGIiPIAJl0DAxBIpBAIloVwjUi69wClSwNKL1Pxm+2337Nlzunt6ijDJObv7nfm+b/7zzcw33+wZ1tvb2yvPOCUlSv5Qc6fU/x6Sjgf/SltLp4SaOsOGTk0bIflTn9O2uaWZkj/Nug9jivNh2GBWovlah5w6fEfqj7bJjcsPA4mQlZcsc0uzZM7icTJ9/thAfd3McYFA4N01jdJw/K49XnrmKClamCGZOckyuShNkkYNl6y8FBmdNkKu9wG8eu6+3L/bI/W1obCVYlVWVRTKrJJx9nhBbgKBaG/rkj01jXJsX6vOgeDFS8fHpU2zinUHWm1ArEh5RaFMLhoTBIP4BnHy8B35sfqKdHc9ltS0JClbnSfL1k2UkaOGB5rQi7l2d7Ps3X5DUBL0+rp8BePF69XmC8Tebddl7/br2r90Va6sXJ8vrEIiCeUc/OmmHNxxUxWF82/YNN2XkmKC6HjQIz9UX5H62jYd7J2qqVK8ZHwiZY8YC7+pqbqoq4KvVFTPkKzc5Ag+Z0NMEN9UnlfnResffDEzoWHRKYT7nnBdU3VBI17upFTZuHW2mrCbzzxHNehdX/+lAAiFG2tmPzEACIbmERwHJwB8v+mykdfz6gkCRzvyyy01oYrNAy+n58iDbCRgVFS/JCiRUI5So1EECPYA0wEfSOTOGk2IaO2YMUoEEErFN70oAgRRiEhBFBpqJ/YSyN2GEt+unKLNRjY3TxgIVgG07AOE0aeFFi3PVotAPkzdTWEgjBm594FLp+/J+6V/2J+vPjrnHmfIn1euL9A5Du64pZbinNDOYonPCIsdYkqxCD5D7LJEkKEgfMGkIGx+5FY4ed2+1jAZbRBnj1rJXGl5TsQuSU7zXe0rKicrYggAn5afNI9DcnWmIAuXT1AQp46EvEGcPHxbhQCxXzIrgA8VJPB8wPz/POjRzc7kU7QhG6uD1ZBNMC+k3wjDIYaYHE9IBcDHW4p0wER9YbJu3wPArJIMDT5natsEh7dBkN9DxUsm6HUwX2iudndL4CFyJqX6CulzSjMVxFk3iLYWKwXOLkwJPLm7Aym1Vxg0fBzoh5kH13X6/PQBs+OCviNue1u33VvNqT1kgRgoW7R7xbjp6Xqsvy5aka2nPMMaan4kdftvy/jcFMFBnXRkZ5PaeHfXwDWL9KyR2tXpKxaIPlSJPCOUvDEh7OyMjQMCv1u5wYr5BginOxzVDxkZ20P9K6GbnUE1tg+ln8H+Tx4UQWpkgCuI7k5rGTncP0sEEEil7rez/iV6msEYUzKmpT5hPTyUUNOjAY+CfsG5Y7zpd+l0u+Zg5jnoFRNiBTApQwrC+IIzbBmGoNcFZVl2CSZIXyqE6ZlW5InV716fQ5vdGl4FQcELYiUGSyRp8RbB/Mzd0mglm8aU6KMgps1PF9kuQhJIwhWU2AM4ebE3ODXkHoezCmcCQ2h+4YpsO+E05xl+p57rRQ0n/tbmafP6C2wKgnSXyUmsqDT43fTIZSDyLs4i2Go0JZCfUcFwU+qYJDvdoLpiwr3hc0dMUzotXtq/YaoUCDPvVSt7bajrr6+agaJdAb/mkymaXcLTE2PHNcLpZre+wE40TZikv+HhAGQ+y9ZOtKdnpVAYZRynonUl4Jr5cobWWGt/bQnL1e0RotxwgEpKHq5JGTvv5TPtnpyk1lBWboru2JgLQh3acVOO77eOAaaje0c37XUHLL4FZeEFPBsEuTrOYuwyyLlibF9UQUt8YpGJQBNfHK1smJk5l9DgdFjnOJg5iSVWU7oqx/mT5di08GP5e4VaNN5Tc03zdmPzADPn77DefQ9EI4pdTtPw4qPNHDfL3nreNiknL68DvGjXlqs6Pv3cQO2VoCOHjN92NulqgJoOEKbgPFe7B4HHCKcdfH75fblCwDFVmGVrLZmcU0TUYmEmirAKaDeek55zgsHes0NXb6hXM33zwxdsxTrHjcj48AWcFdOo+eyCnSk6Oz2pe5Wh6qICYNWiVWEiQCAgiOmEk1Jm92PrQwEMP8SMCcvUZY2PuufyBAGzKeYyyLeV55/oiqC0n7/8045G1GNjZQIRPuFESVQyuygbzLubZ+hG4+RJ9D0+wOqjPKPMgXKxmCAQkF2UQYkQaGNN5RQ7TUg0AObY9vklNWMioN8XOwOCQFCWl5eOvHyECKf4TTxh1Qs4Gxn7AJERIiICwCuUe/X3BcJ0PLa/VfZsbbRzHEr/i8tzwgoChtfPFXMllWBPQlGYD7lS0LeygUAgGJPxltOUWWjDzIpKMmRmSYYmZqyQVyTBXDh4kU6TjTpTFMKnuxrvRxHwBAZhBsZXqPTF+ksEoRGAaNyLCBY47Wur88KyUi/eWG1xg3AOik3z55SGE/c0FKNxLzJpBv/nQHhAJIISAiKaIIDruN8z5KnLkIKIBi7R7f8BethvAmSAJIIAAAAASUVORK5CYII=;" parent="1" vertex="1">
          <mxGeometry x="940.5" y="380" width="49" height="49" as="geometry"/>
        </mxCell>
        <mxCell id="ItPlpzWooNjg1hFzr201-53" value="NAT gateway" style="text;html=1;resizable=0;points=[];autosize=1;align=center;verticalAlign=top;spacingTop=-4;" parent="1" vertex="1">
          <mxGeometry x="1034.5" y="429" width="90" height="20" as="geometry"/>
        </mxCell>
        <mxCell id="ItPlpzWooNjg1hFzr201-54" value="Elastic network interface" style="text;html=1;resizable=0;points=[];autosize=1;align=center;verticalAlign=top;spacingTop=-4;" parent="1" vertex="1">
          <mxGeometry x="895" y="429" width="150" height="20" as="geometry"/>
        </mxCell>
        <mxCell id="ItPlpzWooNjg1hFzr201-55" value="" style="shape=image;verticalLabelPosition=bottom;labelBackgroundColor=#ffffff;verticalAlign=top;aspect=fixed;imageAspect=0;image=data:image/png,iVBORw0KGgoAAAANSUhEUgAAADEAAAAxCAYAAABznEEcAAAIKUlEQVRoBdVaW2xUVRTdt53aJwzDoxEMVOODGAWFGDCB+qHGBNQEH4mE1oTEHxCMRksQH1+QxsboD1Akxj8eCTFGY0G/lADGZ3xQ2j8CFgGBQKfQ0hbajtlr733uuZc77bTw4UzI3HvP2WfvtfbrnDslOLVhUi4gIgrwT75wn4uMBZRjKRnDAlsTk8OcJ2treD3r1bVylTEV8eZzTk5wRddC3uwERCW8EiZz5K58k+PV3hieeTWPKcZEOcwp0vh6b63oEBuq1tMdJNswuwzD7OSYhD7g4hlNBMjE/odESgx8MUcEkSh2IpJOfhoVYY2UWAFLDUjhFltqaTpplyjSiKS4HgIGHwQUaO/kjYPHuFnnuNliXsc4WCprcnjWUOoyCsrTVP34O3TbXfXS0fJ8a7+T2cgD0UjPSbr26zYa6jokGACJ26/uI4o7BdsK2sChi94kkaqFjVS5oJGu/rjdclQadAyobGbG0Ns4iShV9xhVPvMpXWmdyzDzEklxTXAEIl69FRHJEY0MZKnvu2bZiRkGO4bx8hU3DE2f3TXcncsHe6h80XpsgrwmH5FITUAl6uLW1AisMjhPp7OBGw0L5mNymAdFYanP8fXs7xKIJRkx6p4BdqFTouASAVJAw9kuGjp7NPn4YMSgbGwi/hHDzMKurk+xAELLYJMKdoKpNdDZRoOdX5uP8ttgPzsAjCFsNG4xBwk4OUMk3Rg/Gg5pJBRnctgLiMjUl/dQ+ukPcGisXNhAMzZ0QFdJpo5q3z9NpVPqYHvaWx1U8XAj5Cat2Ek1K3aKzTwR0Qpy0RScmurWLsIDoJ0KY3lpYR+DCIsFFWkAYsNBZdqlHY+7OTZYaXKyBvg5C/ISUUyY9+TsmW0ffy2TQ6ZrakrX4BmtAL+jMDSW88Zq6tfS5Cc3CTjEf3xfvd9spP6ftkEt9AKHIKx4dD1VLl5H2a33SzWy3QhOwaP7hG50lnIsOEaNZFa2UklFmsrvrqfeI610/Ux7hByio6RhV40bRQaTun0e1SxrobI7l2Ltlb0rEUFXIybsY2EfOpxyc+OO7QRGJzLS3wMTnB7Xzxyj/o620JvCQEmJt4yI9jfMVSjI3IDoYv9bsQoREXDj1nhiRJJ37AKIZL/cBCDVjzQolAkcUTSvL3+xRgl73QlaNXyIRNi1sDl7RKTFstM537ywsVvRzViPN25yVYsaxPMyLUU93rOW0q9Y0Ii7gT93RU4PyC2VEQxRjIgQpyW7AAeqcRJJP/V2WMxMUlOBE7bQQ6Phm7S8RUj8sSuyV/GgBMs8eaOzeR7pBMN8MkwgUlKVpprFq5zXh7q7qL+9jU5vmY+xOR9nxZIX8kKJGInzm++QdDKsXu6DCJcV2pJ4y7LBNucUFGlckiIyY9V2qrh3KVkhXzvdTlfb91NZZjYMO2+Jy1xaFkLE0qU0UwcYw9m/eRmcwgBtnq8C0SajEZHuZEg4FWIRSU2bQz0Hd1D2Wwk5jBDRzKbDYTrBrrZpL5pjEgF0oulNHbg7926NghUiOi1joxAJu1MeItDAiQNXhMX+77ZnEYlZTYfEFtJpfEREN9HFrUtcVCc//wmVzZxv+HGIZDmXQuhK0YhE3yeSiOiYvXeAT46I08p9zEvjJaKVdu3sUbkLArp+4ggNd3cJqcEeGuxsw1kr8s4TIxLZscE2RsQexRvq6YBo1oZDLp3sxwbnLS1MrNXWnS+1WKaWD4xEdOHDB+jq77vtwA8ilr5WxM6GR8TbJwRgnAi0a4r6+8iVX/ZiatpzzVKIE3hDtHTq/aEVkUDGWjThNStoAZCPCLoTNjUUZAIRhsra/bwMArr8/Q54CiRU5gYjY0VEPdR3pFW8DgzehlYgEfdSlJeIGgrnxcjUF5qplI/VbJhJ4oYL0HOEeVUFLBUsteAcIpryojgk+/nayI4NXQUQCXdsO2bAGyEQhccZGGm/fPDj9wb+VM9bjqvlL+eGf7znSe4n+MIcxKls1oO4wTsG33mkjXAhRKI7dgIRMScG4EHdR87vWg9MmeUbKbNsI3Z1J1vgzUh/D/X9tpuy+9aCIIjGnOjqcJSIRH8V17RA9Nkr4j+LutQGIqJeI6LuAy3Ud3Q/9f68h068nqELe9Zhdz/5Rob+2fwQ6Jz9qJ663pxCQ5e6KPvVJjrVlAb4weOHqXvfq6If9tRZZtsbMyzg4qcvBfJrB8bwxSkjbjQicJEp4ylfzhsPdXhhUF0wrMNOzptjGzZuV1kjm6yN5SMSdL4y3c25vOUYaGzvfO8g9f51gC7tb4mEXIKkcpbnsVowHSxrNWI27FnmrGgUiqcv71p2Csvxn7tCj6uTQTuMiPkV6j3PJ0YE83pE4aBBF9HUFc1UvagBBiJe5QfTaXbZoD/m6YysNTn58UwBQyKZiBGdKJGKe5ZSKjNbaswDaPoioCeQWhIJr1iVoLLRXDWvxr3ihENHRLyljmExfOLrveebIRLu2N4xnHON7XN740/VfUto5Ik1uHd5zhKWuyIm35z0kfEczljD/ZdlnoGPY0OUFhtiSVx7bPUMrSb7TScsVrZaPXcJ1b60hUqrJvtQR7234jWhoYtddO6zRrRe5wQQ9RzhPTsnQJHCM8c4J4Vrg/bVtQk/nkWJhKDCrgUwnmHIMGoz7IxZZMQoREw4vt57Hg+RyE/7bEA6SpjjGHNfYde62WJnlVIHCXsBpzHqRa7sGWS2P+bVk2uxrlMUIRH8fSLuVTgJ1IsjIvJHFvO+F6JiIqL7BDJU6qEIicj/stH9wHm/yIjIf4uwHVsCUnQR+Q/vcb7LAF9SsgAAAABJRU5ErkJggg==;" parent="1" vertex="1">
          <mxGeometry x="820.5" y="454.5" width="49" height="49" as="geometry"/>
        </mxCell>
        <mxCell id="ItPlpzWooNjg1hFzr201-56" value="EC2 Web Server" style="text;html=1;resizable=0;points=[];autosize=1;align=center;verticalAlign=top;spacingTop=-4;" parent="1" vertex="1">
          <mxGeometry x="790" y="504.5" width="110" height="20" as="geometry"/>
        </mxCell>
        <mxCell id="ItPlpzWooNjg1hFzr201-57" value="" style="shape=image;verticalLabelPosition=bottom;labelBackgroundColor=#ffffff;verticalAlign=top;aspect=fixed;imageAspect=0;image=data:image/png,iVBORw0KGgoAAAANSUhEUgAAADEAAAAxCAYAAABznEEcAAAIKUlEQVRoBdVaW2xUVRTdt53aJwzDoxEMVOODGAWFGDCB+qHGBNQEH4mE1oTEHxCMRksQH1+QxsboD1Akxj8eCTFGY0G/lADGZ3xQ2j8CFgGBQKfQ0hbajtlr733uuZc77bTw4UzI3HvP2WfvtfbrnDslOLVhUi4gIgrwT75wn4uMBZRjKRnDAlsTk8OcJ2treD3r1bVylTEV8eZzTk5wRddC3uwERCW8EiZz5K58k+PV3hieeTWPKcZEOcwp0vh6b63oEBuq1tMdJNswuwzD7OSYhD7g4hlNBMjE/odESgx8MUcEkSh2IpJOfhoVYY2UWAFLDUjhFltqaTpplyjSiKS4HgIGHwQUaO/kjYPHuFnnuNliXsc4WCprcnjWUOoyCsrTVP34O3TbXfXS0fJ8a7+T2cgD0UjPSbr26zYa6jokGACJ26/uI4o7BdsK2sChi94kkaqFjVS5oJGu/rjdclQadAyobGbG0Ns4iShV9xhVPvMpXWmdyzDzEklxTXAEIl69FRHJEY0MZKnvu2bZiRkGO4bx8hU3DE2f3TXcncsHe6h80XpsgrwmH5FITUAl6uLW1AisMjhPp7OBGw0L5mNymAdFYanP8fXs7xKIJRkx6p4BdqFTouASAVJAw9kuGjp7NPn4YMSgbGwi/hHDzMKurk+xAELLYJMKdoKpNdDZRoOdX5uP8ttgPzsAjCFsNG4xBwk4OUMk3Rg/Gg5pJBRnctgLiMjUl/dQ+ukPcGisXNhAMzZ0QFdJpo5q3z9NpVPqYHvaWx1U8XAj5Cat2Ek1K3aKzTwR0Qpy0RScmurWLsIDoJ0KY3lpYR+DCIsFFWkAYsNBZdqlHY+7OTZYaXKyBvg5C/ISUUyY9+TsmW0ffy2TQ6ZrakrX4BmtAL+jMDSW88Zq6tfS5Cc3CTjEf3xfvd9spP6ftkEt9AKHIKx4dD1VLl5H2a33SzWy3QhOwaP7hG50lnIsOEaNZFa2UklFmsrvrqfeI610/Ux7hByio6RhV40bRQaTun0e1SxrobI7l2Ltlb0rEUFXIybsY2EfOpxyc+OO7QRGJzLS3wMTnB7Xzxyj/o620JvCQEmJt4yI9jfMVSjI3IDoYv9bsQoREXDj1nhiRJJ37AKIZL/cBCDVjzQolAkcUTSvL3+xRgl73QlaNXyIRNi1sDl7RKTFstM537ywsVvRzViPN25yVYsaxPMyLUU93rOW0q9Y0Ii7gT93RU4PyC2VEQxRjIgQpyW7AAeqcRJJP/V2WMxMUlOBE7bQQ6Phm7S8RUj8sSuyV/GgBMs8eaOzeR7pBMN8MkwgUlKVpprFq5zXh7q7qL+9jU5vmY+xOR9nxZIX8kKJGInzm++QdDKsXu6DCJcV2pJ4y7LBNucUFGlckiIyY9V2qrh3KVkhXzvdTlfb91NZZjYMO2+Jy1xaFkLE0qU0UwcYw9m/eRmcwgBtnq8C0SajEZHuZEg4FWIRSU2bQz0Hd1D2Wwk5jBDRzKbDYTrBrrZpL5pjEgF0oulNHbg7926NghUiOi1joxAJu1MeItDAiQNXhMX+77ZnEYlZTYfEFtJpfEREN9HFrUtcVCc//wmVzZxv+HGIZDmXQuhK0YhE3yeSiOiYvXeAT46I08p9zEvjJaKVdu3sUbkLArp+4ggNd3cJqcEeGuxsw1kr8s4TIxLZscE2RsQexRvq6YBo1oZDLp3sxwbnLS1MrNXWnS+1WKaWD4xEdOHDB+jq77vtwA8ilr5WxM6GR8TbJwRgnAi0a4r6+8iVX/ZiatpzzVKIE3hDtHTq/aEVkUDGWjThNStoAZCPCLoTNjUUZAIRhsra/bwMArr8/Q54CiRU5gYjY0VEPdR3pFW8DgzehlYgEfdSlJeIGgrnxcjUF5qplI/VbJhJ4oYL0HOEeVUFLBUsteAcIpryojgk+/nayI4NXQUQCXdsO2bAGyEQhccZGGm/fPDj9wb+VM9bjqvlL+eGf7znSe4n+MIcxKls1oO4wTsG33mkjXAhRKI7dgIRMScG4EHdR87vWg9MmeUbKbNsI3Z1J1vgzUh/D/X9tpuy+9aCIIjGnOjqcJSIRH8V17RA9Nkr4j+LutQGIqJeI6LuAy3Ud3Q/9f68h068nqELe9Zhdz/5Rob+2fwQ6Jz9qJ663pxCQ5e6KPvVJjrVlAb4weOHqXvfq6If9tRZZtsbMyzg4qcvBfJrB8bwxSkjbjQicJEp4ylfzhsPdXhhUF0wrMNOzptjGzZuV1kjm6yN5SMSdL4y3c25vOUYaGzvfO8g9f51gC7tb4mEXIKkcpbnsVowHSxrNWI27FnmrGgUiqcv71p2Csvxn7tCj6uTQTuMiPkV6j3PJ0YE83pE4aBBF9HUFc1UvagBBiJe5QfTaXbZoD/m6YysNTn58UwBQyKZiBGdKJGKe5ZSKjNbaswDaPoioCeQWhIJr1iVoLLRXDWvxr3ihENHRLyljmExfOLrveebIRLu2N4xnHON7XN740/VfUto5Ik1uHd5zhKWuyIm35z0kfEczljD/ZdlnoGPY0OUFhtiSVx7bPUMrSb7TScsVrZaPXcJ1b60hUqrJvtQR7234jWhoYtddO6zRrRe5wQQ9RzhPTsnQJHCM8c4J4Vrg/bVtQk/nkWJhKDCrgUwnmHIMGoz7IxZZMQoREw4vt57Hg+RyE/7bEA6SpjjGHNfYde62WJnlVIHCXsBpzHqRa7sGWS2P+bVk2uxrlMUIRH8fSLuVTgJ1IsjIvJHFvO+F6JiIqL7BDJU6qEIicj/stH9wHm/yIjIf4uwHVsCUnQR+Q/vcb7LAF9SsgAAAABJRU5ErkJggg==;" parent="1" vertex="1">
          <mxGeometry x="573.5" y="646.5" width="49" height="49" as="geometry"/>
        </mxCell>
        <mxCell id="ItPlpzWooNjg1hFzr201-58" value="EC2 App Server" style="text;html=1;resizable=0;points=[];autosize=1;align=center;verticalAlign=top;spacingTop=-4;" parent="1" vertex="1">
          <mxGeometry x="545" y="697" width="100" height="20" as="geometry"/>
        </mxCell>
        <mxCell id="ItPlpzWooNjg1hFzr201-59" value="" style="shape=image;verticalLabelPosition=bottom;labelBackgroundColor=#ffffff;verticalAlign=top;aspect=fixed;imageAspect=0;image=data:image/png,iVBORw0KGgoAAAANSUhEUgAAADIAAAAyCAYAAAAeP4ixAAALJ0lEQVRoBd1afWyV1Rn/veVCofeWftDSQgSKLS5DkFYFpaVujA3KhyTSdi5RcMuMCfjByDINaAZmKEEdDiLoiBsKSwwKwjIGBXUIFHWwSQUhCG352tZPKKX3ttAC7/J7nnPe3hZ6Wzr/6d709p73Pec85/md5/d8nLd1vp9/zAUvx4HjONL02nLLX47+2Hveylh9zvE6pN18I1fk2ba3ljRkXW+ukaM9YbJB3VRHT5aVJx1AFO/lcl24rmKCbcstf7n6Y+95K2P1OcfrkHbzKVj6XHZr23zrUiKoda6RI0PMmjIf1K2dLCtPBSFKR/CpDuypYKJEcYOqJ4MRav0/gPGo1dPBtKFWTwYTJcFBooVGnJ4Kxqexz2GAYziXuE4wtu0FAOlyJIQSsiPB30UgJgrpaX2RmuxDrD8KA5N7y5RYfy9U1lyV/FJ+rgXBxusoP6vfMp/x3wQZlzmMbfOMqzuOCe1w4DoueGuSlerqUkPOoRgHPhEmz7oOJhDjIH9aIjLvjEF6WrSAoaLB0HWEGq8JgIA/CulD+yB9WB8BZn9x3K7iELZ8FET1+WvfGhifLCC7QYCRwXD386cnomB6okwrOdaINe/WoOzMFZSeafZ2TJOtyfZy4yAl2YeMtGiLB+lDfKiqvaoVwrdgGZ+1aFcs81hhEvImxmHTXy/gwx11YgEpGaiscNFuBllCapiNcYBQ6LruvqIUQNlZfYVOXmkE4PCJFoQar98yzcRHyDGRH8Ey5DxBrH6nCkW761sVYDkT5jNqYQJoC2buo4mYnBvwLNJRY8OfL+FPfwness/4dEXWMpHB+GMcBPy9Wte3ALgDtm0CQHswqUm9kX1PDF5dW4Nd+0JqPWNFCRqA9C95OgmHv7mi8m4xAJg8wqVNYSZN7qcpBGklw2F2PffkYDz50xTRVQDYvgiF5uxZCaiquYqdexs8uSJTlpBwhLu+E42ysy04fFyB2M3x1hb5qmebuaIfYKjFTSLPO7aMWA7Apm3nUTBjAApmJArFys5cRvGBoDiuXdzK4rK0Rs69fry5odbsjWtobMKnCa85d/fD/i+bpKoWnzEb1NXQHEatTsAYwUW7L+KNP1ai8MEByBnXX/zGWqiypgWV1Zor6LCvvFWFOfkJ4POiPQ0eAMlZJuQTXc49fqQk+fD5l02tNDWUFRt0gWaaRzxrRAKjbOKuZwzvi5OnLmPTtgvi9BlMiAN7iw/xOyW5N8rONKs1xgawZr21RtsAoAHGEVoxv9APs+/uJwuFmlwc/qbZo3VnlvF5WbwTMMHQVVnAHxOF3PvikPeDeMyYfZyzUHr6snxkQNhJ89l5gxAMXcP+g9Y3boxmBMPEyRy15Jlks1uQSmDu4qouJ00nZ8pB8TbhpYkkYpc2bZX/h5V3SKB9ftkZSWSkDC9vrlXDcTBoYB+sfSUNxQeD+OyfIduD/f9opHilmTTMfNOe/VA85jwUj9fePi8VAAd6eUZ0MnGObV7SD/QamvHEEruKdrUmN3VaGS0L1128ioKZSSh8MEnqnZYWV/ivI1SolUX6zZwcL9l8YnYs7IfZvOw0q4AwMKY9Ky8Oj/84Aa8KiKAGICPQA2Mmiq4WDLxaSyF0RrOnHh+MkiNBbNpWiykTE/G73wyXZejgpaeUXixXig80oOTrECYWHvd2k8DWLh+GyhqCsFmfYLQ9K68/5j6SiPUfXsQuhmnHFIu0lM1TVLyDaNbqIwZdR2BSU3ojdWAfLFt5TsDs++IS9xFTJyXI88xRfiki8ybGCxBBGKYAQzCp+NXRJqGW9qvPFEztj7mPDsDmonps2FIncgWsrXy7AEaKRk/5CGBkYQBP/XwwXnj5NCqrm0WhHZ/UGc57xG/rMwbMmJEx2H8gqHlC/EETYX5ePGbnJwqINzecN7JoNLKEY7pmmQ6PugQnZpT1mCh14UEpfbDx7e9i6aI00ApKEw414/kkrM0NYERiyf/VsUaRqf3AlO/FYk5BInbuadAQHV5NmLbVwbxQap1PwWYdambyiHobFwh3Iu9eniqQ+QtLkXF7P+RNSsTKl9LFUCVfB1FR1SL8Z4CorG2RsBvr96Ho03pJmgzDh442qmFdFzljA5g3Oxk791wyIG4emrtqGR/Vk9MZl6CDdQRGcUj/jo8vYMcnFxDw+/DA+DikDKT/RCNrVECSIh2bFwMAKwHSquRoI4JBnhgdjBjeF8/OTcXOPfVYv/mCoRC/ug9GLOJlzQhggg2aEEmlwpnJ+NkjqZj2kyPY/vEFCc2iufiYhm+bW1gxk1Ys/3llDIvGisVDUHywAe9+UCubkXNvADv3Mnh0H4y8fCDXZMPDuK08NmYA0BC8KnQpnDkQh45cwqq1/1Jf7KRqzhwVI1ZiOGYp8/qLQ8U6q9+pRiCmF1Ysvk3kGgXUOp67sWF8rhOfibLO2hUwq946h6k/GoCFC9J08wS4bKP4nXkYpoyLzJF+oRhLG4JgCF6+ugI8969YMgSlpzXv6MapLKsTxbe2eaPA1Ml5ZzbadWGOuhyg4S4SzXLHx6Oi6goqq65g0YJheOaJ27Dv83oJxQzHTIz6raGZMifcFytAlj43VPoXLD6DQKAXHitMFktMGBtAanJvAUi1wo8At+IzYUfdyGAGp0QjNzseL//2NLZ/VIs70v3IGhOLCePjkDs+ru3pEcC69ypR/PcGSZZMpHT8X/z6tNIIwPLV/5E5761Jlwi2eXudhtZugvFeB+lRNzIYGppWIZATZSGcLG/E+1urJYnx16DUaDDPMJqVnmpC3qQEYRtBzH+h3HupQH9jMGAQYDBg+S7R0pQg3bGMHqzINSljWGl2AEZUglhl3eqR+GBrtQDSKo2RykVFJWlnaAUHGcP7obS8CayWg8FrsgbHZ44OYMK4WLCc8a6wcsb6663QzCenNVsORAKjnoeXXitH1l39seiXafLZ99lFlBxpkINWRTWBtHg837i1RvTky7rc+2Mx5s4AskYH5GBGK72xrhIF0wd4WDwA3bCMWERfSaqzd2QZiRgATpY1YvuuWqz6/VlMm5wsVMv74QA8nR7TqlC7FrO6/ez7oh7LVp2TlxE8FQoQE3xkWjct4x11OwVjlXNdPJCdgKmTk7DoxVK8v0UTHbvJ+9TUaIxIjxEq8dxeUd0sL/JMPSqZ3XKs9YxBOpt3vxTUDTCGWqKGeVl8c8s0mMwuSoauCayblTOV7fxEMzx1u/G9md8fBdKOuaW9rFsFo3+xkkTDXTFJhqYWn7DvulywRNm4uQLP/yodmaNjsXDxCQ+MjpVbUUjuhS6mavbaOob9rJxXLr1drFUsZxsuaSxjhnGcPOO9bRtZRllZim1nXM6npuSlwc2ZQsolrZm0kDK7CQcPFwzC/Hma2bfvqpGotHd/nTmfaAzjumoJIwMOYgM+jEjvh8xRAeTeHycVNKvmZSv/rVUzuWf45821gNqd262VhaKiM+CMy96tb8yMDl0Bw7kPFwwWX8ka098uZ7J+s4ZankMCvRAI8O8m/NbXrRVVzXLCLNpdJ5tgN0r3sPtgnHHZf9MkIjuiOnUVDJUg/qzMOEmG3HUmODo8L+aOKjlJOjhZ3iQffdPOXmtlMZ/c/y9gwmotFU5hmlv0vtNo5jg4VFKPQxGo4VFFrE7w3Hny/8YAIGvL0jeejcRPLG1tZDOy5Kiruc44mjiTdfrIAUCKTyNQvE4F3eC0nhN7Tq9yZRWznnqtWS/M6b25BMfLOn142+W/cJhJPR1MlG6SWqMng9E/TxszqdnkRvNID6KZd0Ls6ZYx77WsU5uMLg7Vsyyj/68lztGzwfwXJ3jQQUJhmVgAAAAASUVORK5CYII=;" parent="1" vertex="1">
          <mxGeometry x="385" y="646.5" width="50" height="50" as="geometry"/>
        </mxCell>
        <mxCell id="ItPlpzWooNjg1hFzr201-60" value="DynamoDB" style="text;html=1;resizable=0;points=[];autosize=1;align=center;verticalAlign=top;spacingTop=-4;" parent="1" vertex="1">
          <mxGeometry x="370" y="697" width="80" height="20" as="geometry"/>
        </mxCell>
        <mxCell id="ItPlpzWooNjg1hFzr201-61" value="" style="rounded=0;whiteSpace=wrap;html=1;fillColor=#dae8fc;strokeColor=#007FFF;" parent="1" vertex="1">
          <mxGeometry x="790" y="551.5" width="340" height="217" as="geometry"/>
        </mxCell>
        <mxCell id="ItPlpzWooNjg1hFzr201-62" value="" style="shape=image;verticalLabelPosition=bottom;labelBackgroundColor=#ffffff;verticalAlign=top;aspect=fixed;imageAspect=0;image=data:image/png,iVBORw0KGgoAAAANSUhEUgAAACAAAAAhCAYAAAC4JqlRAAABzUlEQVRYCWMUqdv1n2GAQKmDEgPTANkNt3bUAUM3BMR42BisFQQZZAU44fFJDoOFVE2qItwMkwK1GUD0lRefGeQEOBjYWZgZ4pdfYDjz5COpxjGQ5ACQr7enmjHU7LjJsOL8M7hlTirCDAsjDchyBElpoMVDnaFlz20Uy0Gu2HfnLUPa6ksM3b6acEcRyyDJAU6qIgwLTj/BavbRB+/B4qCoIQUQ7QAdCV6G22++4jX7yvPPDDqSvHjVoEsS7QB+DhaGn3/+oevH4LOzEG0kWC9pqjGso1yAkVBl9LrRlWxbAuafYYClDWyGgCojgtnw8YfvDEb9R7Dpxyu2IdEErzxMcsCjgGwHmMjwM5Q5KjOAcgclgCwHgErEFbFGDGzMTAyLIvUZvDTEyHYDWQ6INJRimHXiEbhUzF1/lSFAR5y+Drj8/DODsQw/uCZ0VBFhePThB30dAMpaxx68YzieawW2uPvAXfo6AFQiTjz8gOHVl5/gaCCmhMTlQrLSAC7DyBEf2g4gp4REDyWCRTGouQVq+5EKQLUnMYCgqoVnnjBYKwoRYxaKmu03XhOVPQk6oGs/+VkMxUU4OEM7EeLwFEnCoyHAAmoWDRQA5S4AoxF3kvL18tsAAAAASUVORK5CYII=;" parent="1" vertex="1">
          <mxGeometry x="790" y="551.5" width="32" height="33" as="geometry"/>
        </mxCell>
        <mxCell id="ItPlpzWooNjg1hFzr201-63" value="&lt;font color=&quot;#007fff&quot;&gt;Private subnet&lt;/font&gt;" style="text;html=1;resizable=0;points=[];autosize=1;align=center;verticalAlign=top;spacingTop=-4;" parent="1" vertex="1">
          <mxGeometry x="825" y="561.5" width="90" height="20" as="geometry"/>
        </mxCell>
        <mxCell id="ItPlpzWooNjg1hFzr201-64" value="10.0.0.0/23" style="text;html=1;resizable=0;points=[];autosize=1;align=center;verticalAlign=top;spacingTop=-4;" parent="1" vertex="1">
          <mxGeometry x="910" y="561.5" width="80" height="20" as="geometry"/>
        </mxCell>
        <mxCell id="ItPlpzWooNjg1hFzr201-65" value="" style="shape=image;verticalLabelPosition=bottom;labelBackgroundColor=#ffffff;verticalAlign=top;aspect=fixed;imageAspect=0;image=data:image/png,iVBORw0KGgoAAAANSUhEUgAAADEAAAAxCAYAAABznEEcAAAIKUlEQVRoBdVaW2xUVRTdt53aJwzDoxEMVOODGAWFGDCB+qHGBNQEH4mE1oTEHxCMRksQH1+QxsboD1Akxj8eCTFGY0G/lADGZ3xQ2j8CFgGBQKfQ0hbajtlr733uuZc77bTw4UzI3HvP2WfvtfbrnDslOLVhUi4gIgrwT75wn4uMBZRjKRnDAlsTk8OcJ2treD3r1bVylTEV8eZzTk5wRddC3uwERCW8EiZz5K58k+PV3hieeTWPKcZEOcwp0vh6b63oEBuq1tMdJNswuwzD7OSYhD7g4hlNBMjE/odESgx8MUcEkSh2IpJOfhoVYY2UWAFLDUjhFltqaTpplyjSiKS4HgIGHwQUaO/kjYPHuFnnuNliXsc4WCprcnjWUOoyCsrTVP34O3TbXfXS0fJ8a7+T2cgD0UjPSbr26zYa6jokGACJ26/uI4o7BdsK2sChi94kkaqFjVS5oJGu/rjdclQadAyobGbG0Ns4iShV9xhVPvMpXWmdyzDzEklxTXAEIl69FRHJEY0MZKnvu2bZiRkGO4bx8hU3DE2f3TXcncsHe6h80XpsgrwmH5FITUAl6uLW1AisMjhPp7OBGw0L5mNymAdFYanP8fXs7xKIJRkx6p4BdqFTouASAVJAw9kuGjp7NPn4YMSgbGwi/hHDzMKurk+xAELLYJMKdoKpNdDZRoOdX5uP8ttgPzsAjCFsNG4xBwk4OUMk3Rg/Gg5pJBRnctgLiMjUl/dQ+ukPcGisXNhAMzZ0QFdJpo5q3z9NpVPqYHvaWx1U8XAj5Cat2Ek1K3aKzTwR0Qpy0RScmurWLsIDoJ0KY3lpYR+DCIsFFWkAYsNBZdqlHY+7OTZYaXKyBvg5C/ISUUyY9+TsmW0ffy2TQ6ZrakrX4BmtAL+jMDSW88Zq6tfS5Cc3CTjEf3xfvd9spP6ftkEt9AKHIKx4dD1VLl5H2a33SzWy3QhOwaP7hG50lnIsOEaNZFa2UklFmsrvrqfeI610/Ux7hByio6RhV40bRQaTun0e1SxrobI7l2Ltlb0rEUFXIybsY2EfOpxyc+OO7QRGJzLS3wMTnB7Xzxyj/o620JvCQEmJt4yI9jfMVSjI3IDoYv9bsQoREXDj1nhiRJJ37AKIZL/cBCDVjzQolAkcUTSvL3+xRgl73QlaNXyIRNi1sDl7RKTFstM537ywsVvRzViPN25yVYsaxPMyLUU93rOW0q9Y0Ii7gT93RU4PyC2VEQxRjIgQpyW7AAeqcRJJP/V2WMxMUlOBE7bQQ6Phm7S8RUj8sSuyV/GgBMs8eaOzeR7pBMN8MkwgUlKVpprFq5zXh7q7qL+9jU5vmY+xOR9nxZIX8kKJGInzm++QdDKsXu6DCJcV2pJ4y7LBNucUFGlckiIyY9V2qrh3KVkhXzvdTlfb91NZZjYMO2+Jy1xaFkLE0qU0UwcYw9m/eRmcwgBtnq8C0SajEZHuZEg4FWIRSU2bQz0Hd1D2Wwk5jBDRzKbDYTrBrrZpL5pjEgF0oulNHbg7926NghUiOi1joxAJu1MeItDAiQNXhMX+77ZnEYlZTYfEFtJpfEREN9HFrUtcVCc//wmVzZxv+HGIZDmXQuhK0YhE3yeSiOiYvXeAT46I08p9zEvjJaKVdu3sUbkLArp+4ggNd3cJqcEeGuxsw1kr8s4TIxLZscE2RsQexRvq6YBo1oZDLp3sxwbnLS1MrNXWnS+1WKaWD4xEdOHDB+jq77vtwA8ilr5WxM6GR8TbJwRgnAi0a4r6+8iVX/ZiatpzzVKIE3hDtHTq/aEVkUDGWjThNStoAZCPCLoTNjUUZAIRhsra/bwMArr8/Q54CiRU5gYjY0VEPdR3pFW8DgzehlYgEfdSlJeIGgrnxcjUF5qplI/VbJhJ4oYL0HOEeVUFLBUsteAcIpryojgk+/nayI4NXQUQCXdsO2bAGyEQhccZGGm/fPDj9wb+VM9bjqvlL+eGf7znSe4n+MIcxKls1oO4wTsG33mkjXAhRKI7dgIRMScG4EHdR87vWg9MmeUbKbNsI3Z1J1vgzUh/D/X9tpuy+9aCIIjGnOjqcJSIRH8V17RA9Nkr4j+LutQGIqJeI6LuAy3Ud3Q/9f68h068nqELe9Zhdz/5Rob+2fwQ6Jz9qJ663pxCQ5e6KPvVJjrVlAb4weOHqXvfq6If9tRZZtsbMyzg4qcvBfJrB8bwxSkjbjQicJEp4ylfzhsPdXhhUF0wrMNOzptjGzZuV1kjm6yN5SMSdL4y3c25vOUYaGzvfO8g9f51gC7tb4mEXIKkcpbnsVowHSxrNWI27FnmrGgUiqcv71p2Csvxn7tCj6uTQTuMiPkV6j3PJ0YE83pE4aBBF9HUFc1UvagBBiJe5QfTaXbZoD/m6YysNTn58UwBQyKZiBGdKJGKe5ZSKjNbaswDaPoioCeQWhIJr1iVoLLRXDWvxr3ihENHRLyljmExfOLrveebIRLu2N4xnHON7XN740/VfUto5Ik1uHd5zhKWuyIm35z0kfEczljD/ZdlnoGPY0OUFhtiSVx7bPUMrSb7TScsVrZaPXcJ1b60hUqrJvtQR7234jWhoYtddO6zRrRe5wQQ9RzhPTsnQJHCM8c4J4Vrg/bVtQk/nkWJhKDCrgUwnmHIMGoz7IxZZMQoREw4vt57Hg+RyE/7bEA6SpjjGHNfYde62WJnlVIHCXsBpzHqRa7sGWS2P+bVk2uxrlMUIRH8fSLuVTgJ1IsjIvJHFvO+F6JiIqL7BDJU6qEIicj/stH9wHm/yIjIf4uwHVsCUnQR+Q/vcb7LAF9SsgAAAABJRU5ErkJggg==;" parent="1" vertex="1">
          <mxGeometry x="818.5" y="646.5" width="49" height="49" as="geometry"/>
        </mxCell>
        <mxCell id="ItPlpzWooNjg1hFzr201-66" value="EC2 App Server" style="text;html=1;resizable=0;points=[];autosize=1;align=center;verticalAlign=top;spacingTop=-4;" parent="1" vertex="1">
          <mxGeometry x="790" y="697" width="100" height="20" as="geometry"/>
        </mxCell>
        <mxCell id="ItPlpzWooNjg1hFzr201-69" value="" style="rounded=0;whiteSpace=wrap;html=1;dashed=1;fillColor=none;strokeColor=#FF8000;" parent="1" vertex="1">
          <mxGeometry x="540" y="440" width="360" height="89" as="geometry"/>
        </mxCell>
        <mxCell id="ItPlpzWooNjg1hFzr201-70" value="&lt;font color=&quot;#ff8000&quot;&gt;Auto Scaling group&lt;/font&gt;" style="text;html=1;resizable=0;points=[];autosize=1;align=center;verticalAlign=top;spacingTop=-4;" parent="1" vertex="1">
          <mxGeometry x="660" y="479" width="120" height="20" as="geometry"/>
        </mxCell>
        <mxCell id="ItPlpzWooNjg1hFzr201-71" value="" style="rounded=0;whiteSpace=wrap;html=1;dashed=1;fillColor=none;strokeColor=#FF8000;" parent="1" vertex="1">
          <mxGeometry x="537" y="631" width="360" height="89" as="geometry"/>
        </mxCell>
        <mxCell id="ItPlpzWooNjg1hFzr201-73" value="ELB" style="text;html=1;resizable=0;points=[];autosize=1;align=center;verticalAlign=top;spacingTop=-4;" parent="1" vertex="1">
          <mxGeometry x="697" y="600.5" width="40" height="20" as="geometry"/>
        </mxCell>
        <mxCell id="ItPlpzWooNjg1hFzr201-74" value="" style="shape=image;verticalLabelPosition=bottom;labelBackgroundColor=#ffffff;verticalAlign=top;aspect=fixed;imageAspect=0;image=data:image/png,iVBORw0KGgoAAAANSUhEUgAAADEAAAAxCAYAAABznEEcAAAJiUlEQVRoBdVae3CUVxX/bbIk2bzIxphNApaQh/0DmtBKm06hpQrFx4QxSGdaSmuLGQUfnWFkKozVmeLUsQ7q2HFsQUXGtuL0NYVSO5bQ4EwxlFqqEKS+kmAhb5INm02yea7zO/feb7/9djfZ4ExskmF3v3u/e77f755zfufcDa5d65vDcLkgvy4A/CTX/Bg9LrMxc7JIr3Fxudgy95p3WjJztB81ri44LXYUBm1HP0+tMevscy6kiLVwGPIb5lUYYbnmx+hxmY2Zk0V6TZjLxZa517zTkpmj/ahxdcFpsaMwaDv6eWqNWWefCyNFjFtGSEAu5hWRFIKe70RSolw3Tz2SYmJtPnskJW4yzTOPpCgFiqMK84iIm0ntYnJTu8NSMhAOU9PDSu8pcZTnMOuHVi9qt2Ocyi2hGTWndF+N06QLYW2XY9T+9EwXbq7NwZLl6QgNhRHomUTjbwLalq4H8qw4+DTuiDo59HgucoQENu0qwM212ehuG8fVngks/6QH235eyDjQMq9qQ8KICYdZ7NTuqmKkxHaukv32exYirzAVB3Z2o+HXfhw/OIB9X+0WAp/92sKkicSq0xx65OM1Hrzz2iAGusctwCNDkzj5QgCVt2SokErCI9J2xOz8HBBJz3Ihr9AtrYYJHfM+0DOBjKwUKcIK2/ShJRJrFs9laI0EJ3G2MYgly9KtjsEAvm5ZmuRIsr2WJbH/DyKh4BSur8nE+i95Qc9w99dtzRO1+vPvBxU53RYZgnxXmStxJp6MklhRUqfMJpDf8qpslFVloaw6i/zlJzQ0JfF96ogf/p4JS5ad8puenYI7N+ejem02Tr8akPdbNuRaNpjkzSeGlVFReyXNRExZFkKm5Sfeh9ecDnNC9fvyKotN/87yYZ9bVJGJDdtLUF6dBX/3GDpaQuhsDYEESsoyUFyegeKyDLx/ahCNh/rQ1TrGY4mcU/jqyU7Fxh0+lN7gwZEne/GP0wosr/mc7otjGB1SsqowKOAKg8LiHBcS8ogkiJRUZGLrnlIwnhue7cGFUwFFUBmQzwRcXObB3TuL4fUtwIHdlywiRWUZuO/RYiF8+MkedLWN6TXmsEOosmuWXSfguAerb9zxtnhiJiKLKzx4aE8ZWs4FcfTpDgEi+2I85SDCubX3fxSr6rxCxJPlxn3fLUFn6yh+93gHRofZEdhPj9dORHIiJtZ0HtAs4y8zJxX3PLJEwufVp9oxMjSlj5KcJ4v4Lcqbz/WiuCwdX/9ZqZB+7/hV/PFQn7QXxC/HXyaqPMgR73FaFCsX9JzBTTGOr8e6VvBZ5dXZyC9Kw+GnLmM4yIRNvrK/9ONO+LvH0dkSwuu/6MFIcIpbIxyU0iiVoTrVbMjFmnvzcH2NJ0qZeLMQ0O/ydBturU4Jsl975I4vFOKdN/rQ/m8mod55PTdT0xgamsCbv+1F7TafIi+7rppJ2iK40qpMbH60WIgNdE9gzWYvWPBe/EGP1Atn0+j0iLQdTmaGOccXlXtQsSIHLWcH9W7Mvte60DSIjKxU5PkWaC9GzvIcI4G/HA/gp/UXsW/HJfxw80Uh8cDjRUl5xGo7EhHJyFZfiFwWLxi3zo4I1Sw0NIkb1+YKEW+hG3k+NxYWLsCNa3MQCk7ixKE+yTV6lv3T89/vkuKXTGi5xYcm5iRSokOL4UsQ/Z2jKhH1ver4kXxosZ5QrfjP+fP+20GtdpFkJxHWnnT2UDwX2LBRhjlG+eW721yYELLfrPNPCpS3KA3+rjE5PBnVmg0Rry8Nx5/rlSJIRARAO5/aUoClVZncGsk3BdgFT6ZqQ9iaxMNmJyLfO8lCvT38bA+tK50hmcn3pelxmY0Y5qhWikSqVVKeIYXvTINfV/gRdLSMoKM1hJd/0ilh85kv00NKtXhYqtvhw0DPONqah3UuqlC2YzPkpBdm9nO9qY5qN9Rxsq8rhP6uUUnuf/01YMRpVh5hK8KQpCelB7EddRk2B3Z/gPonrsNN6xZK7yUCAODgt9slX9SaxHUkrsQahia0zr7VjzvvLsLpP1wRQmpcnctnCi0WylV1BVIrtPtizuyt54bxnc/9HbfV5YuKjQ5PiVoxJyTsZiiICSXWEKH7Xj/YLnmxZfdSjYOj9J68WmN0pzO01t1fKKHEkKrdXiT3qnURmVUhDDQd7kfjoStoOuwXNYtgEDWRZ5rQt4f9tBJrjAwHx/FEfTMqV+Riy67kiFCaP7+9BCvX5+OFH13C/kdasXpjAb6yV61PRMQ5bjBItuh8dRJJvWnxQ4+ZXJAwUS+yY9Y4gED/OJpPDuDenUtxw2ovLl4Iyph1u1YbLlxc6cHWPeUoX5GN5/d+gPNNAcmHC6cGcWttPj5xlxf/fDeo450rqFbySEvGaTcyrifNM6xL9cFVf+sJppmV1BKDGpl9XEy6XPhYZTY2PbxEvMI2hEWwo2VYeiKeNSqkz0pHe8sw3nq5F+ebrqq2WgPIzHFj295yCbFffqtN1MqT4wYlmJDY5SoMumZYBDVgi4igU/fW1zTa/shiv5HVRfbCImiIcPniyixUrfai+vZ8vYXqrb9rDOebBsRrTEyzm1wjXatgc+HBx0qx7LZcnDnml9MhSfCHlZ1NIwugoBHQxlN2fDaSQoKrrZvtN05PxEky4kWBLKBUSCoQiYicfKUP7zX4pe1YXVeAVRvz8atd/0Fb80hSRKxvOyIJZW+TVf0QLaLs6B+7MtjnIuMzq5ZJzr81BXB0X4eEFevI0f2dONMwgE3fLJEiF53QBGDHp1RLS6yFLqGM2cGKKUdlN6BmQ4RfNLx7rJ/7pyRbGZZjryeLwkkZ1htiKVMsEf01ZmTn5tIjhKNywVZfACl4PD0q589MRL5QjmKsd8O+85HdVTtmdl3dKndyIoEXIxuk1kUAn//TVdz1gE/3Rmqc9WVV3UfQejao7amdn84j+ozNxFNGjIKIR5jjzu96HOdbQ0SS3DEnoKkNJKilkWOm+z3y9GUsqvDge68sl7Cimq1c7xW5fm1/l+oIBIMDH0PLNu56cOUxm8QSEhdE1GUuVOvTXyyWczyf3npuCFQrSq2FwlJOBz497mauO/9gIrFoiFis43eRxlP/i0feeKYzqiAaWU70LYqFT2OLqJMj+60YVOgSxHt0HhgikgXXkCNKVOIcgaMwyEWUakWr0zwlEqtO85CIbsVjXaQk1jEe5VZ75ZTYiQo5deu1y+9sQsv6vx0zFZYPc47oP7KYXXXs/DwJLeUJDVZHy7Q9y4fRI/8F3e6MkruMZq0AAAAASUVORK5CYII=;" parent="1" vertex="1">
          <mxGeometry x="692.5" y="327.5" width="49" height="49" as="geometry"/>
        </mxCell>
        <mxCell id="ItPlpzWooNjg1hFzr201-75" value="ELB" style="text;html=1;resizable=0;points=[];autosize=1;align=center;verticalAlign=top;spacingTop=-4;" parent="1" vertex="1">
          <mxGeometry x="697" y="375.5" width="40" height="20" as="geometry"/>
        </mxCell>
        <mxCell id="ItPlpzWooNjg1hFzr201-76" value="Internet gateway" style="text;html=1;resizable=0;points=[];autosize=1;align=center;verticalAlign=top;spacingTop=-4;" parent="1" vertex="1">
          <mxGeometry x="670" y="255" width="100" height="20" as="geometry"/>
        </mxCell>
        <mxCell id="ItPlpzWooNjg1hFzr201-79" value="S3" style="text;html=1;resizable=0;points=[];autosize=1;align=center;verticalAlign=top;spacingTop=-4;" parent="1" vertex="1">
          <mxGeometry x="199.5" y="130" width="30" height="20" as="geometry"/>
        </mxCell>
        <mxCell id="ItPlpzWooNjg1hFzr201-80" value="CloudFront" style="text;html=1;resizable=0;points=[];autosize=1;align=center;verticalAlign=top;spacingTop=-4;" parent="1" vertex="1">
          <mxGeometry x="429.5" y="130" width="70" height="20" as="geometry"/>
        </mxCell>
        <mxCell id="ItPlpzWooNjg1hFzr201-81" value="Users" style="text;html=1;resizable=0;points=[];autosize=1;align=center;verticalAlign=top;spacingTop=-4;" parent="1" vertex="1">
          <mxGeometry x="695" y="129" width="50" height="20" as="geometry"/>
        </mxCell>
        <mxCell id="ItPlpzWooNjg1hFzr201-82" value="Route 53" style="text;html=1;resizable=0;points=[];autosize=1;align=center;verticalAlign=top;spacingTop=-4;" parent="1" vertex="1">
          <mxGeometry x="950" y="130" width="60" height="20" as="geometry"/>
        </mxCell>
        <mxCell id="ItPlpzWooNjg1hFzr201-83" value="" style="endArrow=classic;startArrow=classic;html=1;entryX=0;entryY=0.5;entryDx=0;entryDy=0;" parent="1" target="ItPlpzWooNjg1hFzr201-8" edge="1">
          <mxGeometry width="50" height="50" relative="1" as="geometry">
            <mxPoint x="240" y="105" as="sourcePoint"/>
            <mxPoint x="342" y="54.5" as="targetPoint"/>
          </mxGeometry>
        </mxCell>
        <mxCell id="ItPlpzWooNjg1hFzr201-84" value="" style="endArrow=classic;html=1;" parent="1" edge="1">
          <mxGeometry width="50" height="50" relative="1" as="geometry">
            <mxPoint x="749" y="103.5" as="sourcePoint"/>
            <mxPoint x="950" y="104" as="targetPoint"/>
          </mxGeometry>
        </mxCell>
        <mxCell id="ItPlpzWooNjg1hFzr201-85" value="" style="endArrow=classic;html=1;entryX=0.583;entryY=1.2;entryDx=0;entryDy=0;entryPerimeter=0;exitX=0;exitY=0.5;exitDx=0;exitDy=0;" parent="1" source="ItPlpzWooNjg1hFzr201-59" target="ItPlpzWooNjg1hFzr201-79" edge="1">
          <mxGeometry width="50" height="50" relative="1" as="geometry">
            <mxPoint x="217" y="650" as="sourcePoint"/>
            <mxPoint x="239" y="505" as="targetPoint"/>
            <Array as="points">
              <mxPoint x="217" y="672"/>
            </Array>
          </mxGeometry>
        </mxCell>
        <mxCell id="ItPlpzWooNjg1hFzr201-86" value="" style="endArrow=classic;html=1;exitX=0.5;exitY=0;exitDx=0;exitDy=0;entryX=0.5;entryY=0;entryDx=0;entryDy=0;" parent="1" source="ItPlpzWooNjg1hFzr201-10" target="ItPlpzWooNjg1hFzr201-8" edge="1">
          <mxGeometry width="50" height="50" relative="1" as="geometry">
            <mxPoint x="740" y="40" as="sourcePoint"/>
            <mxPoint x="460" y="50" as="targetPoint"/>
            <Array as="points">
              <mxPoint x="981" y="60"/>
              <mxPoint x="820" y="60"/>
              <mxPoint x="465" y="60"/>
            </Array>
          </mxGeometry>
        </mxCell>
        <mxCell id="ItPlpzWooNjg1hFzr201-87" value="" style="endArrow=classic;html=1;exitX=0.507;exitY=1.15;exitDx=0;exitDy=0;exitPerimeter=0;entryX=0.5;entryY=0;entryDx=0;entryDy=0;" parent="1" source="ItPlpzWooNjg1hFzr201-80" target="ItPlpzWooNjg1hFzr201-14" edge="1">
          <mxGeometry width="50" height="50" relative="1" as="geometry">
            <mxPoint x="544" y="160" as="sourcePoint"/>
            <mxPoint x="745" y="160.5" as="targetPoint"/>
            <Array as="points">
              <mxPoint x="465" y="170"/>
              <mxPoint x="720" y="170"/>
            </Array>
          </mxGeometry>
        </mxCell>
        <mxCell id="ItPlpzWooNjg1hFzr201-88" value="" style="endArrow=classic;html=1;" parent="1" edge="1">
          <mxGeometry width="50" height="50" relative="1" as="geometry">
            <mxPoint x="716" y="281.5" as="sourcePoint"/>
            <mxPoint x="716" y="321.5" as="targetPoint"/>
          </mxGeometry>
        </mxCell>
        <mxCell id="ItPlpzWooNjg1hFzr201-91" value="" style="endArrow=classic;html=1;entryX=0.5;entryY=0;entryDx=0;entryDy=0;" parent="1" target="ItPlpzWooNjg1hFzr201-35" edge="1">
          <mxGeometry width="50" height="50" relative="1" as="geometry">
            <mxPoint x="691.5" y="354.5" as="sourcePoint"/>
            <mxPoint x="660" y="335.0891238670695" as="targetPoint"/>
            <Array as="points">
              <mxPoint x="470" y="354"/>
            </Array>
          </mxGeometry>
        </mxCell>
        <mxCell id="ItPlpzWooNjg1hFzr201-92" value="" style="endArrow=classic;html=1;entryX=0.5;entryY=0;entryDx=0;entryDy=0;" parent="1" target="ItPlpzWooNjg1hFzr201-52" edge="1">
          <mxGeometry width="50" height="50" relative="1" as="geometry">
            <mxPoint x="740" y="355" as="sourcePoint"/>
            <mxPoint x="794.5" y="380.5" as="targetPoint"/>
            <Array as="points">
              <mxPoint x="965" y="355"/>
            </Array>
          </mxGeometry>
        </mxCell>
        <mxCell id="ItPlpzWooNjg1hFzr201-98" value="" style="endArrow=classic;html=1;exitX=0.5;exitY=1.05;exitDx=0;exitDy=0;exitPerimeter=0;entryX=1;entryY=0.5;entryDx=0;entryDy=0;" parent="1" source="ItPlpzWooNjg1hFzr201-54" target="ItPlpzWooNjg1hFzr201-69" edge="1">
          <mxGeometry width="50" height="50" relative="1" as="geometry">
            <mxPoint x="1192" y="441.5" as="sourcePoint"/>
            <mxPoint x="1393" y="442" as="targetPoint"/>
            <Array as="points">
              <mxPoint x="970" y="485"/>
            </Array>
          </mxGeometry>
        </mxCell>
        <mxCell id="ItPlpzWooNjg1hFzr201-99" value="" style="endArrow=classic;html=1;exitX=0.5;exitY=1.125;exitDx=0;exitDy=0;exitPerimeter=0;entryX=0;entryY=0.5;entryDx=0;entryDy=0;" parent="1" source="ItPlpzWooNjg1hFzr201-38" target="ItPlpzWooNjg1hFzr201-69" edge="1">
          <mxGeometry width="50" height="50" relative="1" as="geometry">
            <mxPoint x="130" y="489" as="sourcePoint"/>
            <mxPoint x="60" y="523.5" as="targetPoint"/>
            <Array as="points">
              <mxPoint x="470" y="485"/>
            </Array>
          </mxGeometry>
        </mxCell>
        <mxCell id="ItPlpzWooNjg1hFzr201-100" value="" style="endArrow=classic;html=1;exitX=0.5;exitY=1.125;exitDx=0;exitDy=0;exitPerimeter=0;entryX=0.25;entryY=0;entryDx=0;entryDy=0;" parent="1" target="ItPlpzWooNjg1hFzr201-15" edge="1">
          <mxGeometry width="50" height="50" relative="1" as="geometry">
            <mxPoint x="592" y="530.5" as="sourcePoint"/>
            <mxPoint x="662" y="561" as="targetPoint"/>
            <Array as="points">
              <mxPoint x="592" y="540"/>
              <mxPoint x="705" y="540"/>
            </Array>
          </mxGeometry>
        </mxCell>
        <mxCell id="ItPlpzWooNjg1hFzr201-102" value="" style="endArrow=classic;html=1;exitX=0.5;exitY=1.125;exitDx=0;exitDy=0;exitPerimeter=0;entryX=0.75;entryY=0;entryDx=0;entryDy=0;" parent="1" target="ItPlpzWooNjg1hFzr201-15" edge="1">
          <mxGeometry width="50" height="50" relative="1" as="geometry">
            <mxPoint x="840.5" y="529.5" as="sourcePoint"/>
            <mxPoint x="953.25" y="550.5" as="targetPoint"/>
            <Array as="points">
              <mxPoint x="840.5" y="539"/>
              <mxPoint x="729" y="539"/>
            </Array>
          </mxGeometry>
        </mxCell>
        <mxCell id="ItPlpzWooNjg1hFzr201-103" value="" style="endArrow=classic;html=1;entryX=0.75;entryY=0;entryDx=0;entryDy=0;" parent="1" edge="1">
          <mxGeometry width="50" height="50" relative="1" as="geometry">
            <mxPoint x="710" y="621" as="sourcePoint"/>
            <mxPoint x="598.25" y="646.5" as="targetPoint"/>
            <Array as="points">
              <mxPoint x="709.5" y="634"/>
              <mxPoint x="598" y="634"/>
            </Array>
          </mxGeometry>
        </mxCell>
        <mxCell id="ItPlpzWooNjg1hFzr201-104" value="" style="endArrow=classic;html=1;exitX=0.75;exitY=0.975;exitDx=0;exitDy=0;exitPerimeter=0;entryX=0.25;entryY=0;entryDx=0;entryDy=0;" parent="1" source="ItPlpzWooNjg1hFzr201-73" edge="1">
          <mxGeometry width="50" height="50" relative="1" as="geometry">
            <mxPoint x="727" y="625.5" as="sourcePoint"/>
            <mxPoint x="839.75" y="646.5" as="targetPoint"/>
            <Array as="points">
              <mxPoint x="727" y="635"/>
              <mxPoint x="840" y="635"/>
            </Array>
          </mxGeometry>
        </mxCell>
        <mxCell id="ItPlpzWooNjg1hFzr201-105" value="" style="endArrow=classic;html=1;entryX=1;entryY=0.5;entryDx=0;entryDy=0;" parent="1" target="ItPlpzWooNjg1hFzr201-59" edge="1">
          <mxGeometry width="50" height="50" relative="1" as="geometry">
            <mxPoint x="530" y="672" as="sourcePoint"/>
            <mxPoint x="210" y="720" as="targetPoint"/>
          </mxGeometry>
        </mxCell>
        <mxCell id="ItPlpzWooNjg1hFzr201-107" value="" style="endArrow=classic;html=1;exitX=0.5;exitY=1.05;exitDx=0;exitDy=0;exitPerimeter=0;entryX=0.5;entryY=1.15;entryDx=0;entryDy=0;entryPerimeter=0;" parent="1" target="ItPlpzWooNjg1hFzr201-60" edge="1">
          <mxGeometry width="50" height="50" relative="1" as="geometry">
            <mxPoint x="840" y="720" as="sourcePoint"/>
            <mxPoint x="770" y="754.5" as="targetPoint"/>
            <Array as="points">
              <mxPoint x="840" y="750"/>
              <mxPoint x="410" y="750"/>
            </Array>
          </mxGeometry>
        </mxCell>
        <mxCell id="oMCxOILZwtbvPG_adfYq-1" value="&lt;table border=&quot;1&quot; width=&quot;100%&quot; style=&quot;width: 100% ; height: 100% ; border-collapse: collapse&quot;&gt;&lt;tbody&gt;&lt;tr&gt;&lt;td align=&quot;center&quot;&gt;&lt;span&gt;&lt;b&gt;Destination&lt;/b&gt;&lt;/span&gt;&lt;/td&gt;&lt;td align=&quot;center&quot;&gt;&lt;span&gt;&lt;b&gt;Target&lt;/b&gt;&lt;/span&gt;&lt;/td&gt;&lt;/tr&gt;&lt;tr&gt;&lt;td align=&quot;center&quot;&gt;10.0.0.0/16&lt;/td&gt;&lt;td align=&quot;center&quot;&gt;local&lt;/td&gt;&lt;/tr&gt;&lt;tr&gt;&lt;td align=&quot;center&quot;&gt;0.0.0.0/0&lt;/td&gt;&lt;td align=&quot;center&quot;&gt;igw-id&lt;/td&gt;&lt;/tr&gt;&lt;/tbody&gt;&lt;/table&gt;" style="text;html=1;strokeColor=none;fillColor=none;overflow=fill;" parent="1" vertex="1">
          <mxGeometry x="-20" y="323" width="180" height="140" as="geometry"/>
        </mxCell>
        <mxCell id="DNbWIVDoC287xexCsAdM-1" value="&lt;table border=&quot;1&quot; width=&quot;100%&quot; style=&quot;width: 100% ; height: 100% ; border-collapse: collapse&quot;&gt;&lt;tbody&gt;&lt;tr&gt;&lt;td align=&quot;center&quot;&gt;&lt;span&gt;&lt;b&gt;Destination&lt;/b&gt;&lt;/span&gt;&lt;/td&gt;&lt;td align=&quot;center&quot;&gt;&lt;span&gt;&lt;b&gt;Target&lt;/b&gt;&lt;/span&gt;&lt;/td&gt;&lt;/tr&gt;&lt;tr&gt;&lt;td align=&quot;center&quot;&gt;10.0.0.0/16&lt;/td&gt;&lt;td align=&quot;center&quot;&gt;local&lt;/td&gt;&lt;/tr&gt;&lt;tr&gt;&lt;td align=&quot;center&quot;&gt;0.0.0.0/0&lt;/td&gt;&lt;td align=&quot;center&quot;&gt;nat-1&lt;/td&gt;&lt;/tr&gt;&lt;/tbody&gt;&lt;/table&gt;" style="text;html=1;strokeColor=none;fillColor=none;overflow=fill;" vertex="1" parent="1">
          <mxGeometry x="-20" y="557" width="180" height="140" as="geometry"/>
        </mxCell>
        <mxCell id="DNbWIVDoC287xexCsAdM-2" value="&lt;table border=&quot;1&quot; width=&quot;100%&quot; style=&quot;width: 100% ; height: 100% ; border-collapse: collapse&quot;&gt;&lt;tbody&gt;&lt;tr&gt;&lt;td align=&quot;center&quot;&gt;&lt;span&gt;Destination&lt;/span&gt;&lt;/td&gt;&lt;td align=&quot;center&quot;&gt;&lt;span&gt;Target&lt;/span&gt;&lt;/td&gt;&lt;/tr&gt;&lt;tr&gt;&lt;td align=&quot;center&quot;&gt;10.0.0.0/16&lt;/td&gt;&lt;td align=&quot;center&quot;&gt;local&lt;/td&gt;&lt;/tr&gt;&lt;tr&gt;&lt;td align=&quot;center&quot;&gt;0.0.0.0/0&lt;/td&gt;&lt;td align=&quot;center&quot;&gt;nat-2&lt;/td&gt;&lt;/tr&gt;&lt;/tbody&gt;&lt;/table&gt;" style="text;html=1;strokeColor=none;fillColor=none;overflow=fill;" vertex="1" parent="1">
          <mxGeometry x="1240" y="550" width="180" height="140" as="geometry"/>
        </mxCell>
        <mxCell id="DNbWIVDoC287xexCsAdM-3" value="&lt;table border=&quot;1&quot; width=&quot;100%&quot; style=&quot;width: 100% ; height: 100% ; border-collapse: collapse&quot;&gt;&lt;tbody&gt;&lt;tr&gt;&lt;td&gt;&lt;span&gt;&lt;b&gt;Source&lt;/b&gt;&lt;/span&gt;&lt;/td&gt;&lt;td&gt;&lt;span&gt;&lt;b&gt;Protocol&lt;/b&gt;&lt;/span&gt;&lt;/td&gt;&lt;td&gt;&lt;b&gt;Port&lt;/b&gt;&lt;/td&gt;&lt;/tr&gt;&lt;tr&gt;&lt;td&gt;Fake IP&lt;/td&gt;&lt;td&gt;TCP&lt;/td&gt;&lt;td&gt;22&lt;/td&gt;&lt;/tr&gt;&lt;tr&gt;&lt;td&gt;&lt;b&gt;Destination&lt;/b&gt;&lt;/td&gt;&lt;td&gt;&lt;b&gt;Protocol&lt;/b&gt;&lt;/td&gt;&lt;td&gt;&lt;b&gt;Port&lt;/b&gt;&lt;/td&gt;&lt;/tr&gt;&lt;tr&gt;&lt;td&gt;0.0.0.0/0&lt;/td&gt;&lt;td&gt;all&lt;/td&gt;&lt;td&gt;all&lt;/td&gt;&lt;/tr&gt;&lt;/tbody&gt;&lt;/table&gt;" style="text;html=1;strokeColor=none;fillColor=none;overflow=fill;align=center;" vertex="1" parent="1">
          <mxGeometry x="-230" y="323" width="180" height="140" as="geometry"/>
        </mxCell>
        <mxCell id="DNbWIVDoC287xexCsAdM-4" value="Security Group" style="text;html=1;resizable=0;points=[];autosize=1;align=center;verticalAlign=top;spacingTop=-4;" vertex="1" parent="1">
          <mxGeometry x="-190" y="296.5" width="100" height="20" as="geometry"/>
        </mxCell>
        <mxCell id="DNbWIVDoC287xexCsAdM-5" value="Security Group" style="text;html=1;resizable=0;points=[];autosize=1;align=center;verticalAlign=top;spacingTop=-4;" vertex="1" parent="1">
          <mxGeometry x="-190" y="531.5" width="100" height="20" as="geometry"/>
        </mxCell>
        <mxCell id="DNbWIVDoC287xexCsAdM-6" value="Routing Table" style="text;html=1;resizable=0;points=[];autosize=1;align=center;verticalAlign=top;spacingTop=-4;" vertex="1" parent="1">
          <mxGeometry x="25" y="296.5" width="90" height="20" as="geometry"/>
        </mxCell>
        <mxCell id="DNbWIVDoC287xexCsAdM-7" value="Routing Table" style="text;html=1;resizable=0;points=[];autosize=1;align=center;verticalAlign=top;spacingTop=-4;" vertex="1" parent="1">
          <mxGeometry x="25" y="537" width="90" height="20" as="geometry"/>
        </mxCell>
        <mxCell id="DNbWIVDoC287xexCsAdM-8" value="&lt;table border=&quot;1&quot; width=&quot;100%&quot; style=&quot;width: 100% ; height: 100% ; border-collapse: collapse&quot;&gt;&lt;tbody&gt;&lt;tr&gt;&lt;td&gt;&lt;span&gt;&lt;b&gt;Source&lt;/b&gt;&lt;/span&gt;&lt;/td&gt;&lt;td&gt;&lt;span&gt;&lt;b&gt;Protocol&lt;/b&gt;&lt;/span&gt;&lt;/td&gt;&lt;td&gt;&lt;b&gt;Port&lt;/b&gt;&lt;/td&gt;&lt;/tr&gt;&lt;tr&gt;&lt;td&gt;10.0.0.0/23&lt;/td&gt;&lt;td&gt;TCP&lt;/td&gt;&lt;td&gt;5432&lt;/td&gt;&lt;/tr&gt;&lt;/tbody&gt;&lt;/table&gt;" style="text;html=1;strokeColor=none;fillColor=none;overflow=fill;align=center;" vertex="1" parent="1">
          <mxGeometry x="-230" y="557" width="180" height="140" as="geometry"/>
        </mxCell>
      </root>
    </mxGraphModel>
  </diagram>
</mxfile>
